<svg xmlns="http://www.w3.org/2000/svg" xmlns:xlink="http://www.w3.org/1999/xlink" viewBox="0 0 39.81 39.81"><defs><style>.cls-1{fill:none;}.cls-2{isolation:isolate;}.cls-3{clip-path:url(#clip-path);}.cls-4{clip-path:url(#clip-path-2);}.cls-5{clip-path:url(#clip-path-3);}</style><clipPath id="clip-path"><polygon class="cls-1" points="0.4 27.63 19.84 16.33 39.41 27.63 19.97 38.92 0.4 27.63"/></clipPath><clipPath id="clip-path-2"><polygon class="cls-1" points="0.4 19.9 19.84 8.61 39.41 19.9 19.97 31.2 0.4 19.9"/></clipPath><clipPath id="clip-path-3"><polygon class="cls-1" points="0.4 12.18 19.84 0.89 39.41 12.18 19.97 23.48 0.4 12.18"/></clipPath></defs><title>icon_layers</title><g id="Layer_2" data-name="Layer 2"><g id="Layer_1-2" data-name="Layer 1"><rect class="cls-1" width="39.81" height="39.81" transform="translate(39.81 39.81) rotate(-180)"/><g class="cls-2"><g class="cls-3"><path d="M8.21,27.63l11.66-6.77,11.74,6.78L19.95,34.4,8.21,27.63m31.2,0L19.84,16.33.4,27.63,20,38.92l19.44-11.3"/></g></g><g class="cls-2"><g class="cls-4"><path d="M8.21,19.9l11.66-6.77,11.74,6.78L19.95,26.68,8.21,19.9m31.2,0L19.84,8.61.4,19.9,20,31.2,39.41,19.9"/></g></g><g class="cls-2"><g class="cls-5"><path d="M39.41,12.18,19.84.89.4,12.18,20,23.48l19.44-11.3"/></g></g></g></g></svg>