<?xml version="1.0" encoding="utf-8"?>
<!-- Generator: Adobe Illustrator 21.1.0, SVG Export Plug-In . SVG Version: 6.00 Build 0)  -->
<svg version="1.1" id="Layer_1" xmlns="http://www.w3.org/2000/svg" xmlns:xlink="http://www.w3.org/1999/xlink" x="0px" y="0px"
	 viewBox="0 0 39.8 39.8" style="enable-background:new 0 0 39.8 39.8;" xml:space="preserve">
<style type="text/css">
	.st0{fill:none;}
	.st1{fill:#FFFFFF;}
</style>
<title>icon_layers</title>
<g id="Layer_1-2">
	<rect class="st0" width="39.8" height="39.8"/>
	<polygon class="st0" points="0.4,27.6 19.8,16.3 39.4,27.6 20,38.9 	"/>
	<g>
		<path class="st1" d="M8.2,27.6l11.7-6.8l11.7,6.8L20,34.4L8.2,27.6 M39.4,27.6L19.8,16.3L0.4,27.6L20,38.9L39.4,27.6"/>
	</g>
	<polygon class="st0" points="0.4,19.9 19.8,8.6 39.4,19.9 20,31.2 	"/>
	<g>
		<path class="st1" d="M8.2,19.9l11.7-6.8l11.7,6.8L20,26.7L8.2,19.9 M39.4,19.9L19.8,8.6L0.4,19.9L20,31.2L39.4,19.9"/>
	</g>
	<polygon class="st1" points="0.4,12.2 19.8,0.9 39.4,12.2 20,23.5 	"/>
</g>
</svg>
