<svg xmlns="http://www.w3.org/2000/svg" viewBox="0 0 56 63.3"><defs><style>.cls-1{fill:#ef3e36;}.cls-2{fill:none;}</style></defs><title>icon_task_progressing</title><g id="Layer_2" data-name="Layer 2"><g id="Layer_1-2" data-name="Layer 1"><path class="cls-1" d="M26.88,5.58A18.12,18.12,0,0,0,8.75,23.7c0,9.64,9.46,18.24,14.71,22.27a5.54,5.54,0,0,0,6.79,0C35.49,41.83,45,33.08,45,23.7A18.12,18.12,0,0,0,26.88,5.58Zm0,28.3A10.26,10.26,0,1,1,37.14,23.61,10.26,10.26,0,0,1,26.88,33.88Z"/><rect class="cls-2" width="56" height="63.3"/><circle class="cls-1" cx="18.16" cy="55.42" r="3.16"/><circle class="cls-1" cx="27" cy="55.42" r="3.16"/><circle class="cls-1" cx="35.84" cy="55.42" r="3.16"/></g></g></svg>