<svg xmlns="http://www.w3.org/2000/svg" xmlns:xlink="http://www.w3.org/1999/xlink" viewBox="0 0 43.13 41.11"><defs><style>.cls-1{fill:none;}.cls-2{fill:#f88043;}.cls-3{fill:url(#New_Pattern_Swatch_1);}</style><pattern id="New_Pattern_Swatch_1" data-name="New Pattern Swatch 1" width="67" height="57" patternUnits="userSpaceOnUse" viewBox="0 0 67 57"><rect class="cls-1" width="67" height="57"/><rect class="cls-2" width="67" height="57"/></pattern></defs><title>icon_star</title><g id="Layer_2" data-name="Layer 2"><g id="Layer_1-2" data-name="Layer 1"><path class="cls-3" d="M22.46.56,28.58,13l13.69,2a1,1,0,0,1,.55,1.71l-9.9,9.65,2.34,13.63A1,1,0,0,1,33.81,41L21.56,34.56,9.32,41a1,1,0,0,1-1.45-1.05l2.34-13.63L.3,16.66A1,1,0,0,1,.86,15l13.69-2L20.67.56A1,1,0,0,1,22.46.56Z"/></g></g></svg>