<?xml version="1.0" encoding="utf-8"?>
<!-- Generator: Adobe Illustrator 21.1.0, SVG Export Plug-In . SVG Version: 6.00 Build 0)  -->
<svg version="1.1" id="paths" xmlns="http://www.w3.org/2000/svg" xmlns:xlink="http://www.w3.org/1999/xlink" x="0px" y="0px"
	 viewBox="0 0 322.9 178.1" style="enable-background:new 0 0 322.9 178.1;" xml:space="preserve">
<style type="text/css">
	.st0{opacity:0.2;clip-path:url(#SVGID_2_);}
	.st1{fill:#D9E021;}
	.st2{fill:#3FA9F5;}
	.st3{fill:#29ABE2;}
	.st4{opacity:0.2;clip-path:url(#SVGID_2_);fill:#0071BC;enable-background:new    ;}
</style>
<title>map</title>
<g>
	<defs>
		<rect id="SVGID_1_" x="0" width="322.9" height="178.1"/>
	</defs>
	<clipPath id="SVGID_2_">
		<use xlink:href="#SVGID_1_"  style="overflow:visible;"/>
	</clipPath>
	<g class="st0">
		<path class="st1" d="M157.5-45.9c-0.1,0-0.3,0-0.3,0.2c-0.5,1.5-2.1,2.3-3.6,1.8c-0.7-0.2-1.3-0.8-1.7-1.5
			c1.6-2.6,2.8-5.4,1.7-7.9c-0.5-1-1.2-1.9-2-2.6c-0.3-0.3-0.6-0.6-0.9-0.9c-2.6-2.8-3.4-6.8-3.8-10.4c-0.1-0.6-0.2-1.2-0.2-1.9
			c-0.2-3.2-0.9-6.3-2.1-9.3c-0.3-0.7-0.7-1.3-1-2c-0.8-1.2-1.3-2.6-1.7-4c-0.1-0.3-0.1-0.6-0.2-0.9c-0.1-0.5-0.1-0.9-0.3-1.4
			c-0.5-1.5-1.4-2.8-2.5-3.9c-1.6-1.8-3.7-3.8-6.1-3.2c-1.8,0.4-2.8,2.1-3.7,3.8c0.2-1.2,0.1-2.4-0.2-3.5c-0.5-1.2-1.3-2.2-2.2-3.1
			c-0.1-0.1-0.2-0.2-0.3-0.4c0.3-0.7,0.5-1.4,0.6-2.2c0.1-1.4-0.9-2-1.8-2.7c-0.5-0.3-1-0.7-1.4-1.1c0,0,0,0,0,0c0-0.3,0-0.6,0-0.9
			c0-0.1-0.1-0.3-0.2-0.3c-0.1,0-0.3,0.1-0.3,0.2c-0.2,2.2,0.4,4.4,1.8,6.2c0.2,0.3,0.5,0.6,0.7,0.9c-0.1,0.3-0.2,0.6-0.4,0.9
			c-0.4,0.8-0.7,1.7-0.9,2.6c-0.2,1.4-0.3,2.8-0.1,4.1c0.1,0.9,0.4,1.7,1,2.3c0,0.1,0,0.1,0,0.2c1,3.1,0.5,6.5-1.2,9.3
			c-1.6,2.4-4.2,4-7,4.4c0,0,0-0.1-0.1-0.1c-0.1-0.1-0.2-0.2-0.3-0.1c-0.1,0.1-0.2,0.2-0.1,0.3h0c-0.3,0-0.7,0-1,0.1
			c-1.7,0.1-3.6,0.2-4.6,1.7c-0.5,1.1-0.7,2.3-0.5,3.4l0,0.4c0.1,1.1,0,2.3-0.1,3.4c-0.1,0-0.2,0.1-0.2,0.1
			c-0.8,1.7-4.4,2.6-6.2,1.8c-0.1,0-0.2-0.1-0.3-0.2c-0.1-0.4,0-0.8,0.3-1.1c1.4-2.3,1.3-5.2,1.3-7.5c0-0.8-0.1-1.6-0.4-2.4
			c-0.1-0.2-0.2-0.4-0.4-0.6c-0.1-0.2-0.3-0.4-0.4-0.6c-0.6-1.3,0.1-2.8,0.9-4c0.8-1.3,1.6-2.7,1.3-4.3c0-0.1-0.2-0.2-0.3-0.2
			c-0.1,0-0.2,0.2-0.2,0.3c0.3,1.3-0.5,2.7-1.3,3.9c-0.8,1.3-1.5,2.9-0.9,4.4c0.1,0.2,0.3,0.5,0.4,0.7c0.1,0.2,0.2,0.4,0.3,0.6
			c0.3,0.7,0.4,1.4,0.4,2.2c0.1,2.3,0.2,5.1-1.2,7.2c-0.2,0.4-0.7,1.2-0.2,1.7c0.1,0.1,0.3,0.2,0.5,0.3c0.6,0.2,1.2,0.3,1.8,0.3
			c1.7,0,3.3-0.6,4.6-1.7c-0.2,0.9-0.4,1.7-0.7,2.5c-0.7,2-2.3,4.3-4.5,4.1l-0.1,0c-0.2,0-0.3,0-0.5,0c-1,0.2-0.8,1.4-0.8,2.3l0,0.1
			c0,0.3,0,0.6,0,0.9c-1.1-1.1-2.7-1.6-4.2-1.5c-0.3,0.1-0.7,0.2-1.1,0.2c-1.3,0.5-2.7,0.5-4-0.1c-0.2-0.1-0.4-0.2-0.6-0.2
			c-2.2-0.8-4.7-0.5-6.7,0.6c-0.3,0.2-0.6,0.3-0.8,0.5c-0.6,0.4-1.2,0.7-1.8,0.9c-1.7,0.5-3.5-0.5-5.2-1.5l-4.5-2.7
			c-0.1-0.1-0.3,0-0.3,0.1s0,0.3,0.1,0.3l0,0l4.5,2.7c1.3,0.9,2.9,1.5,4.5,1.7c0.4,0,0.7,0,1.1-0.1c0.7-0.2,1.4-0.6,2-1
			c0.3-0.2,0.5-0.3,0.8-0.5c1.9-1.1,4.2-1.3,6.3-0.6c0.2,0.1,0.4,0.1,0.6,0.2c1.3,0.6,2.9,0.7,4.3,0.2c0.3-0.1,0.7-0.2,1-0.2
			c1.5-0.1,3,0.5,4,1.7c-0.3,0.8-0.7,1.6-1.1,2.4c-0.8,1.5-1.7,3.1-1.1,4.8c0.2,0.4,0.4,0.8,0.6,1.1c0.7,1,1,2.3,0.8,3.5
			c0,0,0,0,0,0.1c0,0,0,0,0,0c-0.1,1,0,2.1,0.4,3c0.5,0.8,1.2,1.5,2,1.9c0.6,0.4,1.1,0.9,1.6,1.4c0.4,0.6,0.7,1.3,0.9,2.1
			c0.2,0.8,0.6,1.6,1,2.3c0.3,0.4,0.6,0.7,1,1c1,0.7,1.6,1.8,1.6,3.1c0,0.4,0.1,0.9,0.2,1.3c0.2,0.7,0.6,1.4,1,2.1
			c0.1,0.2,0.2,0.4,0.4,0.6c1,1.8,1.5,3.9,1.4,6c0,0.1,0.1,0.3,0.2,0.3h0c0.1,0,0.2-0.1,0.2-0.2c0.1-2.2-0.4-4.4-1.5-6.3
			c-0.1-0.2-0.2-0.4-0.4-0.6c-0.4-0.6-0.7-1.2-0.9-1.9c-0.1-0.4-0.1-0.8-0.2-1.2c0.1-1.4-0.6-2.7-1.7-3.4c-0.3-0.3-0.7-0.6-1-0.9
			c-0.4-0.6-0.8-1.4-1-2.1c-0.2-0.8-0.5-1.5-1-2.2c-0.5-0.6-1.1-1.1-1.7-1.5c-0.7-0.4-1.3-1-1.8-1.8c-0.3-0.8-0.5-1.7-0.4-2.6
			c1.8-0.3,3.4-1.8,4.9-3.3c1.4-1.4,2.9-2.8,4.5-3.1c0.5-0.1,1-0.2,1.5-0.2c1,0.1,2.1-0.2,2.9-0.9c0.7-0.9,0.9-2,0.7-3.1
			c-0.1-0.7,0-1.4,0.2-2.1c0.2-0.4,0.4-0.8,0.6-1.2c0.7-1,1-2.2,0.6-3.4c0-0.2-0.1-0.4-0.1-0.6c-0.3-1.9,0.4-3.7,1.9-4.9
			c0.4,0.3,0.9,0.5,1.3,0.6c1,0.3,1.8,0.9,2.3,1.8c0.3,0.6,0.8,1.1,1.4,1.4c0.1,0.1,0.2,0.1,0.3,0.2c0.1,0,0.2,0.1,0.2,0.1l0.1,0.1
			l0.1,0c0.1,0.1,0.3,0.3,0.4,0.4c0,0,0,0.1,0,0.1c0,0.1,0.1,0.3,0.2,0.3h0c0,0,0,0,0,0c1,1.2,1.5,2.7,1.5,4.2
			c-0.1,0.9-0.2,1.9-0.5,2.8h0c-0.1-0.1-0.3-0.1-0.4,0c-0.1,0.1-0.1,0.3,0,0.4c0,0,0,0,0,0c0.1,0.1,0.2,0.1,0.2,0.2
			c-0.3,1.2-0.5,2.4-0.3,3.6c0.2,1,0.6,2,1.1,2.9c0.6,1,1,2.1,1.1,3.3c0,1.2-0.3,2.3-0.9,3.4c-0.6,1.2-0.9,2.6-0.8,4
			c0,0.2,0.1,0.5,0.1,0.7c0.5,0.9,0.2,2-0.7,2.5c0,0,0,0-0.1,0l-0.1,0c-2,1.5-3.7,3.5-4.9,5.7c-0.2,0.4-0.5,0.9-0.7,1.3
			c-0.4,0.9-0.9,1.8-1.5,2.7c-1,1.2-2.1,2.2-3.3,3c-0.4,0.3-0.9,0.7-1.3,1c-2.1,1.7-3.2,3.4-3.5,5.2c0,0.1,0.1,0.3,0.2,0.3
			c0,0,0,0,0,0h0c0.1,0,0.2-0.1,0.2-0.2c0.2-1.6,1.3-3.2,3.3-4.8c0.4-0.3,0.8-0.7,1.3-1c1.3-0.9,2.4-1.9,3.4-3.1
			c0.6-0.9,1.1-1.8,1.6-2.7c0.2-0.4,0.4-0.9,0.7-1.3c1.2-2.2,2.8-4,4.8-5.5l0.1,0c0.4-0.2,0.7-0.6,0.9-0.9c0.3-0.7,0.3-1.4,0-2.1
			c-0.1-0.2-0.1-0.4-0.1-0.7c-0.1-1.3,0.2-2.6,0.8-3.7c0.6-1.1,0.9-2.3,0.9-3.6c-0.1-1.2-0.5-2.4-1.2-3.5c-0.5-0.9-0.9-1.8-1.1-2.8
			c-0.1-1.1,0-2.1,0.3-3.2c1.3,0.6,2.7,0.8,4.1,0.7c1.2-0.1,2.4,0,3.6,0.4c0.9,0.4,1.7,0.9,2.4,1.6c0.9,0.9,2,1.5,3.2,1.8
			c0.5,0.1,1,0.1,1.4,0.1c0.4,0,0.9,0,1.3,0c1.3,0.3,2.5,1.1,3.2,2.3c1.7,2.2,2.4,5,2.1,7.8l0,0.4c-0.2,0.9-0.1,1.8,0.2,2.7
			c0.2,0.3,0.4,0.5,0.6,0.7c0.1,0.1,0.3,0.3,0.4,0.4c0.5,0.7,0.7,1.6,0.5,2.4c0,0.1,0,0.3,0.2,0.3c0,0,0,0,0.1,0
			c0.1,0,0.2-0.1,0.2-0.2c0.3-1,0.1-2.1-0.6-2.9c-0.1-0.2-0.3-0.3-0.4-0.4c-0.2-0.2-0.4-0.4-0.5-0.6c-0.3-0.7-0.4-1.6-0.2-2.3l0-0.4
			c0.3-2.9-0.4-5.8-2.2-8.2c-0.8-1.2-2.1-2.1-3.6-2.4c-0.5-0.1-0.9-0.1-1.4,0c-0.4,0-0.9,0-1.3-0.1c-1.1-0.3-2.1-0.9-2.9-1.7
			c-0.7-0.7-1.6-1.3-2.5-1.7c-1.2-0.4-2.5-0.5-3.7-0.4c-1.5,0-2.9,0.1-4-0.7c0,0,0-0.1,0-0.1c0.2-0.6,0.3-1.3,0.4-2
			c1.1,0.3,2.2,0.4,3.3,0.3c1.3-0.1,2.7,0.1,3.9,0.6c0.5,0.3,1,0.7,1.5,1c0.8,0.8,1.9,1.4,3,1.4c0.5-0.1,1-0.2,1.5-0.4
			c0.5-0.2,1-0.4,1.6-0.4c0.7,0.1,1.4,0.5,1.9,1.1c0.3,0.2,0.6,0.5,0.9,0.7c1.4,0.9,3.6,1.1,5.6,1.1c-0.3,0.6-0.7,1.3-1.1,1.9
			c0,0.1,0,0.2,0,0.2c0.2,0.5,0.5,0.9,0.9,1.2c0,0-0.1,0.1-0.1,0.1c-0.2,1.3-0.3,2.5-0.4,3.8c-0.1,0.5,0,1,0.1,1.4
			c0.2,0.4,0.5,0.8,0.8,1.1c0.3,0.3,0.6,0.6,0.8,1c0,0.8-0.3,1.5-0.9,2c-0.9,1-1.1,1.8-0.8,2.5c0,0.1,0.1,0.2,0.2,0.2
			c0,0,0.1,0,0.1,0c0.1-0.1,0.2-0.2,0.1-0.3c0,0,0,0,0,0c-0.2-0.5,0-1.2,0.7-2c0.3-0.3,0.6-0.7,0.8-1.1c0.1,0.4,0.3,0.7,0.6,1
			c0.1,0.1,0.1,0.1,0.2,0.2c0.1,0.1,0.2,0.2,0.3,0.4c0.1,0.2,0.2,0.5,0.2,0.7c0.3,1.6,0.1,3.2-0.6,4.6c-0.1,0.1,0,0.3,0.1,0.3
			c0.1,0,0.3,0,0.3-0.1c0.7-1.5,0.9-3.3,0.6-4.9c0-0.3-0.1-0.6-0.3-0.9c-0.1-0.2-0.2-0.3-0.4-0.5c-0.1-0.1-0.1-0.1-0.2-0.2
			c-0.4-0.5-0.7-1.1-0.6-1.8c0-0.2,0.1-0.5,0.2-0.7c0.1-0.2,0.2-0.3,0.3-0.5c0.1-0.1,0.1-0.2,0.2-0.3c1-1.4,0.7-3.8,0.5-5.4
			c1.1-0.3,2-1.1,2.4-2.1C157.7-45.7,157.6-45.9,157.5-45.9z M129-88.8c0.1-0.2,0.2-0.4,0.3-0.6c0.9-1.7,1.8-3.5,3.6-4
			c2.1-0.5,4.1,1.4,5.6,3.1c1.1,1,1.9,2.3,2.4,3.7c0.1,0.4,0.2,0.9,0.3,1.3c0,0.3,0.1,0.6,0.2,0.9c0.4,1.4,1,2.8,1.8,4.1
			c0.3,0.6,0.7,1.3,1,2c1.1,2.9,1.8,6,2,9.2c0.1,0.6,0.1,1.2,0.2,1.9c0.5,3.6,1.3,7.7,3.9,10.6c0.2,0.3,0.5,0.5,0.8,0.8
			c-2,0-4.4-0.5-5.6-1.6c-0.1-0.1-0.2-0.1-0.2-0.2c-0.3-0.3-0.6-0.5-1-0.7c-0.5-0.2-1.1-0.4-1.6-0.4c-0.7,0-1.4-0.3-1.9-0.8
			c-0.2-0.5-0.2-1.2-0.1-1.7c0.2-0.6,0.2-1.2,0-1.8c-0.3-0.7-0.8-1.3-1.5-1.7c-0.5-0.3-0.9-0.7-1.2-1.1c-0.2-0.3-0.3-0.7-0.4-1.1
			c-0.1-0.2-0.1-0.4-0.2-0.7c-0.6-1.8-2.3-2.9-4.1-4c0,0-0.1,0-0.2,0c0.1-0.6,0.2-1.2,0.3-1.8c0.3-1,0.4-1.9,0.4-2.9
			c-0.1-2.1-1.3-3.9-2.5-5.6c-1.2-1.4-2-3.1-2.4-4.9C129-87.5,128.9-88.1,129-88.8z M125.4-98.1c-0.9-1.2-1.5-2.7-1.7-4.3
			c0.4,0.3,0.7,0.6,1.1,0.9c0.9,0.6,1.6,1.1,1.6,2.2c-0.1,0.6-0.2,1.2-0.5,1.8C125.8-97.6,125.6-97.9,125.4-98.1L125.4-98.1z
			 M124.9-89.3c-0.2-1.3-0.1-2.7,0.1-4c0.2-0.9,0.5-1.7,0.9-2.5c0.1-0.2,0.2-0.5,0.3-0.7c0.1,0.1,0.1,0.1,0.2,0.2
			c0.9,0.8,1.6,1.8,2.1,2.9c0.3,1.2,0.4,2.5,0.2,3.7c0,0.3-0.1,0.5-0.1,0.8c-0.1,0.2-0.3,0.5-0.4,0.7c-0.3,0.6-0.8,1.1-1.5,1.3
			C125.6-86.9,125-88.1,124.9-89.3z M118.5-58.2c0,0.2,0.1,0.4,0.1,0.6c0.1,0.5,0.2,0.9,0.2,1.4c-0.1,0.6-0.3,1.1-0.7,1.6
			c-0.3,0.4-0.5,0.9-0.6,1.3c-0.2,0.7-0.2,1.5-0.2,2.2c0.2,1,0,1.9-0.6,2.7c-0.7,0.6-1.6,0.8-2.5,0.7c-0.5,0-1.1,0.1-1.6,0.2
			c-1.7,0.4-3.2,1.9-4.7,3.3c-1.4,1.4-2.9,2.8-4.5,3.1c0.1-0.8,0-1.7-0.3-2.5c-0.2-0.3-0.4-0.7-0.6-1c-0.2-0.3-0.4-0.6-0.6-1
			c-0.6-1.4,0.2-2.8,1.1-4.3c0.9-1.2,1.3-2.7,1.4-4.2l0-0.1c-0.1-0.9-0.1-1.6,0.4-1.7c0.1,0,0.2,0,0.3,0l0.1,0
			c2.5,0.2,4.2-2.3,5-4.5c0.8-2.3,1.2-4.7,1-7.1l0-0.4c-0.2-1.1,0-2.2,0.4-3.1c0.8-1.3,2.6-1.3,4.2-1.4c0.4,0,0.7,0,1.1-0.1
			c0.1,0,0.1,0,0.2,0c1.2,2.2,2,4.5,2.6,6.9l0,0.1c0.1,0.7,0.4,1.4,0.8,1.9c0,0,0,0,0.1,0.1C118.9-62.2,118.2-60.2,118.5-58.2
			L118.5-58.2z M125.9-59.9c-0.4-0.3-0.7-0.7-1-1.1c-0.6-1-1.5-1.7-2.6-2c-0.4-0.1-0.9-0.3-1.3-0.6c0,0,0-0.1,0-0.1
			c0-0.1-0.1-0.1-0.2-0.1c0,0-0.1-0.1-0.1-0.1c-0.4-0.5-0.6-1.1-0.7-1.7l0-0.1c-0.6-2.4-1.5-4.7-2.6-6.8c2.9-0.5,5.5-2.2,7.2-4.6
			c1.7-2.8,2.2-6.2,1.3-9.4c0.2,0.1,0.4,0.1,0.7,0.1c0.8-0.1,1.5-0.6,1.8-1.4c0,0.4,0,0.7,0.1,1.1c0.4,1.9,1.3,3.7,2.5,5.2
			c1.2,1.7,2.3,3.4,2.4,5.3c0,0.9-0.1,1.9-0.4,2.8c-0.2,0.8-0.3,1.6-0.4,2.4c0,0.2,0,0.4,0,0.6c0,0.5,0,1-0.1,1.5
			c-0.3,0.8-0.8,1.5-1.5,2l-0.1,0.1c-1.8,1.8-3.4,3.7-4.7,5.8C126-60.7,125.9-60.3,125.9-59.9L125.9-59.9z M147.1-49
			c-0.3-0.2-0.6-0.4-0.8-0.6c-1-1.2-2.7-1.5-4-0.8c-0.4,0.2-0.9,0.3-1.4,0.4c-1-0.1-2-0.6-2.7-1.3c-0.5-0.4-1-0.8-1.5-1.1
			c-1.3-0.6-2.7-0.8-4.2-0.6c-1.1,0.1-2.2,0-3.2-0.3c0-0.2,0-0.3,0-0.5c0-1.8-0.6-3.5-1.8-4.8c-0.2-0.3-0.4-0.6-0.8-0.7
			c-0.2-0.1-0.3-0.3-0.4-0.6c0-0.3,0.1-0.5,0.3-0.7c1.3-2.1,2.9-4,4.7-5.7l0.1-0.1c0.7-0.6,1.3-1.4,1.6-2.3c0.1-0.5,0.2-1.1,0.1-1.6
			c0-0.2,0-0.4,0-0.6c0,0,0-0.1,0-0.1c1.7,1,3.3,2.1,3.8,3.7c0.1,0.2,0.1,0.4,0.2,0.6c0.1,0.4,0.2,0.9,0.5,1.2
			c0.3,0.5,0.8,0.9,1.3,1.2c0.6,0.3,1,0.8,1.3,1.4c0.1,0.5,0.1,1-0.1,1.5c-0.2,0.7-0.2,1.4,0.1,2.1c0.5,0.7,1.4,1.1,2.2,1.1
			c0.5,0.1,1,0.2,1.5,0.4c0.3,0.2,0.6,0.4,0.9,0.6c0.1,0.1,0.2,0.1,0.2,0.2c1.4,1.2,4,1.7,6,1.7c0.1,0,0.2,0,0.3,0c0,0,0,0,0.1,0
			c0.7,0.6,1.2,1.3,1.6,2.1c0.7,1.6,0.3,3.4-0.5,5.2c0,0,0,0-0.1,0C150.6-48,148.4-48.2,147.1-49L147.1-49z M154.4-38.4
			c-0.1,0.1-0.1,0.2-0.2,0.2c-0.1,0.2-0.3,0.4-0.4,0.6c0,0.1,0,0.1-0.1,0.2c-0.2-0.3-0.4-0.5-0.7-0.7c-0.3-0.2-0.5-0.5-0.7-0.9
			c-0.1-0.4-0.1-0.8-0.1-1.2c0.1-1.2,0.3-2.5,0.4-3.7c0.5,0.3,1.2,0.5,1.8,0.5h0.1c0.1,0,0.1,0,0.2,0
			C155-41.8,155.2-39.6,154.4-38.4L154.4-38.4z"/>
		<path class="st1" d="M318.5-94.9c-0.6-0.3-1.2-0.4-1.9-0.5c-0.1,0-0.3,0-0.4-0.1c-0.2,0-0.4-0.1-0.6-0.2c-0.2-0.3-0.4-0.6-0.4-1
			c0-0.2-0.1-0.4-0.1-0.5c-0.4-1.1-1.3-2-2.5-2.3c-0.6-0.2-1.2-0.4-1.8-0.6c-0.9-0.3-1.8-0.6-2.6-1c-1.1-0.6-2.4-1.9-2.4-3.4
			c0-0.1-0.1-0.3-0.2-0.3c-0.1,0-0.2,0.1-0.3,0.2c0,0,0,0,0,0c0.1,1.7,1.1,3.2,2.6,3.9c0.9,0.4,1.7,0.8,2.7,1
			c0.6,0.2,1.2,0.4,1.7,0.6c1,0.3,1.8,1,2.2,2c0,0.2,0.1,0.3,0.1,0.5c0,0.5,0.2,1,0.6,1.3c0.2,0.2,0.5,0.3,0.8,0.3
			c0.1,0,0.3,0,0.4,0.1c0.6,0.1,1.2,0.2,1.8,0.4c0.6,0.3,1.1,0.9,1.1,1.6c0,0.1,0.1,0.3,0.2,0.3c0,0,0,0,0,0h0
			c0.1,0,0.2-0.1,0.2-0.2C319.9-93.7,319.3-94.6,318.5-94.9z"/>
		<path class="st1" d="M318.1-62.7c-2.3,1.2-5.6,0.6-7.8-1.4c-0.2-0.2-0.5-0.5-0.7-0.7c-0.5-0.6-1.1-1.1-1.8-1.5
			c-1.7-1-3.7-0.8-5.7-0.6c-0.4,0-0.7,0.1-1.1,0.1c-2.5,0.2-5.1-0.1-7.5-0.8c-0.5-0.2-1-0.3-1.5-0.5c-2.3-0.9-4.8-1.3-7.3-1l-1,0
			c0-1.2,0-2.5,0.3-3.7c0,0,0.1,0.1,0.2,0.1c0.1,0.1,0.3,0,0.3-0.1c0.1-0.1,0-0.3-0.1-0.3c0,0,0,0,0,0c-0.1-0.1-0.2-0.2-0.3-0.3
			c0.1-0.4,0.2-0.8,0.3-1.2c0.1-0.3,0.2-0.6,0.3-0.9c0.3-0.8,0.5-1.7,0.6-2.6c0.1-2.1-0.5-4.2-1.7-6c-1.2-1.6-2.5-3.1-4-4.4
			l-0.2-0.2c-0.5-0.5-1-1.2-1.3-1.9c0.3-0.2,0.6-0.4,0.9-0.6c0.8-0.4,1.4-1,1.9-1.7c0.2-0.7,0.3-1.4,0.2-2.1
			c-0.1-0.6-0.1-1.1,0.1-1.7c0,0,0-0.1,0-0.1c0,0,0.1,0.1,0.1,0.1c0.9,0.3,1.8,0.6,2.7,0.8c0.3,0.1,0.6,0.1,0.9,0
			c0.4-0.1,0.7-0.4,0.9-0.7l0.1-0.1c0.5-0.6,1.2-1.1,1.9-1.5c1-0.7,2.3-0.7,3.4-0.2c0.5,0.4,1,0.8,1.3,1.3c0.4,0.7,1,1.2,1.8,1.6
			c0.9,0.3,1.9,0.2,2.8-0.1c0.8-0.3,1.6-0.3,2.4-0.2c0.3,0.1,0.5,0.2,0.7,0.4c0.3,0.2,0.6,0.3,0.9,0.5c0.7,0.2,1.4,0.2,2.1,0
			c0.7-0.2,1.5-0.1,2.1,0.2c0,0,0.1,0,0.1,0c0.1,0,0.2-0.1,0.2-0.3c0-0.1,0-0.2-0.1-0.2c-0.8-0.4-1.7-0.5-2.5-0.3
			c-0.6,0.1-1.2,0.1-1.8,0c-0.3-0.1-0.5-0.2-0.8-0.4c-0.3-0.2-0.5-0.3-0.8-0.4c-0.9-0.2-1.9-0.2-2.7,0.1c-0.8,0.3-1.7,0.4-2.5,0.1
			c-0.6-0.3-1.2-0.8-1.6-1.4c-0.4-0.6-0.9-1.1-1.5-1.5c-1.2-0.6-2.7-0.5-3.9,0.2c-0.8,0.4-1.5,0.9-2,1.6l-0.1,0.1
			c-0.2,0.2-0.4,0.4-0.7,0.5c-0.2,0-0.5,0-0.7,0c-0.9-0.2-1.7-0.4-2.6-0.8c0,0-0.1,0-0.1,0c0.1-0.1,0.1-0.3,0.2-0.4l0.1-0.1
			c0.4-0.6,0.6-1.2,0.8-1.9c0.1-0.7-0.1-1.5-0.7-2c-0.1-0.1-0.2-0.2-0.4-0.3c-0.2-0.1-0.3-0.2-0.5-0.4c-0.3-0.5,0.1-1.2,0.5-1.8
			c0.1-0.1,0.1-0.3,0-0.4c-0.1-0.1-0.3-0.1-0.4,0c0,0,0,0,0,0c-0.7,1-0.9,1.8-0.5,2.3c0.2,0.2,0.4,0.4,0.6,0.5
			c0.1,0.1,0.2,0.1,0.3,0.2c0.4,0.4,0.6,1,0.5,1.6c-0.1,0.6-0.3,1.2-0.7,1.7l-0.1,0.1c-0.2,0.3-0.3,0.6-0.5,0.9
			c-0.2,0.6-0.2,1.3-0.1,1.9c0.1,0.6,0.1,1.2-0.1,1.8c-0.4,0.7-1,1.2-1.7,1.5c-0.4,0.2-0.7,0.4-1,0.7c-0.5,0.4-0.9,0.8-1.2,1.3
			c-0.4,0.6-0.9,1.1-1.5,1.4c-0.6,0.3-1.3,0.5-2,0.5c-1.2,0-2.4-0.2-3.5-0.6c0,0,0-0.1,0-0.1c0-0.1-0.1-0.2-0.3-0.2
			c-0.1,0-0.1,0.1-0.2,0.1c-1.5-0.7-2.9-1.6-4.1-2.6c-0.8-0.6-1.5-1.2-2.1-2c0.1-0.1,0-0.2-0.1-0.3c0,0-0.1,0-0.2,0
			c-0.1-0.1-0.2-0.2-0.2-0.3c-0.3-0.5-0.6-0.9-1-1.2c-0.2-0.2-0.4-0.3-0.6-0.5c-0.2-0.1-0.3-0.2-0.5-0.3c-0.5-0.5-1-1-1.4-1.6
			c-0.4-0.6-0.8-1.2-1.4-1.7c-1.6-1.4-4-1.2-6.1-0.9c-0.1,0-0.2,0.1-0.2,0.3c0,0.1,0.1,0.2,0.3,0.2l0,0c2.1-0.3,4.2-0.4,5.7,0.8
			c0.5,0.5,0.9,1,1.3,1.6c0.4,0.7,0.9,1.3,1.5,1.8c0.2,0.1,0.3,0.2,0.5,0.3c0.2,0.1,0.4,0.3,0.6,0.4c0.4,0.3,0.7,0.7,0.9,1.1
			c0.1,0.1,0.2,0.2,0.2,0.4c-0.8,0.9-1.3,2.1-1.5,3.3c-0.1,0.4-0.2,0.9-0.4,1.4c-0.1,0.2-0.2,0.4-0.3,0.6c-0.5,0.3-1,0.4-1.6,0.2
			c-0.2,0-0.3,0-0.5-0.1c-2-0.1-3.7,1.3-4.1,3.2c0,0.1,0.1,0.3,0.2,0.3c0,0,0,0,0,0h0c0.1,0,0.2-0.1,0.2-0.2
			c0.3-1.7,1.8-2.9,3.5-2.8c0.1,0,0.3,0,0.5,0.1c0.7,0.2,1.4,0.1,2-0.4c0.2-0.2,0.3-0.4,0.3-0.6c0.8-0.1,1.7,0,2.4,0.4
			c0.1,0.1,0.1,0.1,0.2,0.2c0.1,0.1,0.3,0.3,0.4,0.4c0.2,0.1,0.5,0.2,0.8,0.2c0.4,0,0.8-0.1,1.2-0.4c0.3-0.2,0.7-0.4,1.1-0.7
			c0.4-0.2,0.7-0.5,1-0.7c0.4,0.2,0.8,0.4,1.2,0.6c0.3,1.3,0.1,2.6-0.6,3.7c-0.2,0.3-0.5,0.5-0.8,0.8c-0.2,0.2-0.4,0.4-0.6,0.6
			c-0.6,0.5-0.8,1.3-0.7,2c0.3,0.6,0.7,1.1,1.3,1.3c0.5,0.2,0.9,0.6,1.1,1.1c0,0.4-0.1,0.8-0.3,1.2c-0.1,0.3-0.3,0.5-0.3,0.8
			c-0.2,1,0.1,2,0.8,2.7c0.7,0.6,1.4,1.2,2.3,1.6l4.8,2.6c1.2,0.8,2.6,1.1,4.1,1l3.2-0.1c0,0.1,0,0.2,0,0.3c0,0.1,0.1,0.2,0.2,0.2h0
			c0.1,0,0.2-0.1,0.2-0.3c0,0,0,0,0,0c0-0.1,0-0.2,0-0.2l1,0c2.4-0.2,4.8,0.1,7.1,1c0.5,0.2,1,0.3,1.5,0.5c2.5,0.7,5.1,1,7.7,0.8
			c0.4,0,0.7-0.1,1.1-0.1c1.9-0.2,3.8-0.4,5.4,0.5c0.6,0.4,1.2,0.9,1.7,1.4c0.2,0.2,0.5,0.5,0.7,0.7c1.5,1.4,3.5,2.2,5.5,2.2
			c1,0,2-0.2,2.9-0.7c0.1-0.1,0.2-0.2,0.1-0.3C318.4-62.8,318.2-62.8,318.1-62.7L318.1-62.7z M266.6-88.3c-0.4,0.3-0.8,0.5-1,0.7
			c-0.4,0.3-1,0.4-1.5,0.1c-0.1-0.1-0.2-0.2-0.3-0.3c-0.1-0.1-0.2-0.2-0.3-0.2c-0.8-0.5-1.7-0.7-2.6-0.6c0.1-0.4,0.2-0.7,0.3-1.1
			c0.1-1.1,0.6-2.2,1.3-3c0.6,0.7,1.4,1.4,2.2,2c0.9,0.7,1.8,1.3,2.7,1.9C267.1-88.7,266.9-88.5,266.6-88.3L266.6-88.3z M280.3-80.8
			c1.1,0.6,2,1.6,2.6,2.7c0.4,1,0.5,2,0.4,3.1c-0.1,0.5,0,1.1,0.2,1.6c-0.3,1.4-0.4,2.8-0.4,4.3L280-69c-0.7,0-1.3,0-1.9-0.1
			c-0.5-0.1-1-0.3-1.5-0.6c0.1-0.1,0.2-0.2,0.1-0.3c-0.6-1.7-0.7-3.5-0.1-5.1c0.2-0.5,0.5-0.9,0.8-1.4c0.3-0.5,0.6-0.9,0.8-1.4
			c0.4-1.3,0.1-2.7-0.8-3.7c-0.1-0.1-0.3-0.1-0.4,0c-0.1,0.1-0.1,0.2,0,0.3c0.7,0.9,1,2.1,0.6,3.2c-0.2,0.5-0.5,0.9-0.7,1.4
			c-0.3,0.5-0.6,1-0.8,1.5c-0.6,1.8-0.6,3.7,0,5.4l0,0l-4.8-2.6c-0.8-0.4-1.5-0.9-2.1-1.5c-0.6-0.6-0.8-1.4-0.7-2.2
			c0.1-0.3,0.2-0.5,0.3-0.7c0.3-0.5,0.4-1,0.4-1.5c-0.2-0.6-0.7-1.2-1.3-1.5c-0.5-0.2-0.9-0.6-1.1-1.1c-0.1-0.6,0.1-1.1,0.6-1.5
			c0.2-0.2,0.4-0.4,0.6-0.5c0.3-0.3,0.6-0.5,0.9-0.8c0.7-1.1,1-2.5,0.8-3.8c1,0.4,2,0.6,3.1,0.6c0.1,0,0.3,0,0.4,0
			c0.8,0,1.5-0.2,2.2-0.6c0.6-0.4,1.2-0.9,1.6-1.6c0.3-0.3,0.5-0.6,0.8-0.9c0.4,0.7,0.8,1.3,1.4,1.9l0.2,0.2
			c1.5,1.3,2.8,2.7,3.9,4.3c1.2,1.6,1.7,3.6,1.6,5.6c-0.1,0.8-0.3,1.7-0.6,2.5c-0.1,0.3-0.2,0.6-0.3,0.9c0,0,0,0,0,0
			c0-0.1,0-0.1,0-0.2c0.1-1.1,0-2.3-0.5-3.3c-0.6-1.2-1.6-2.2-2.8-2.9c-0.5-0.3-0.9-0.8-1.2-1.3c0-0.1-0.2-0.2-0.3-0.2c0,0,0,0,0,0
			c-0.1,0-0.2,0.2-0.2,0.3c0,0,0,0,0,0C279.2-81.7,279.7-81.1,280.3-80.8L280.3-80.8z"/>
	</g>
	<g class="st0">
		<path class="st2" d="M251.3-82.2c4.4-0.6,9.3-1.1,10-0.9c0.2,0.3,1.1,1.2,2.1,2.3l-8.6,5.8c-0.2,0.1-0.2,0.3-0.1,0.5
			c0.1,0.2,0.3,0.2,0.5,0.1l8.7-5.9c1.3,1.4,2.7,2.6,4.2,3.7c0,0.3-0.1,0.8-0.1,1.2c-0.7,0.6-6.3,3.9-9.7,5.8
			c-0.2,0.1-0.2,0.3-0.1,0.5c0.1,0.2,0.3,0.2,0.5,0.1c10.1-5.7,10.1-6.1,10.1-6.3c0-0.4,0.1-0.8,0.1-1.2c0.6-0.2,1.9-1,5.3-2.9
			c4.2-2.4,9.9-5.6,11.3-5.9c0.8-0.1,2.5-0.5,4.3-1c3.7-0.9,8.7-2.1,10.5-2c2.7,0.1,19.4,1.6,19.6,1.6c0.2,0,0.4-0.1,0.4-0.3
			s-0.1-0.4-0.3-0.4c-0.7-0.1-16.9-1.5-19.6-1.6c-1.9-0.1-6.8,1.1-10.7,2c-1.9,0.4-3.5,0.8-4.3,1c-1.6,0.3-7.1,3.4-11.5,6
			c-2.4,1.4-4.9,2.8-5.2,2.9c-1.6-1.1-3-2.4-4.3-3.8v0c0,0,0,0,0,0c-0.9-0.8-1.6-1.6-2.4-2.5c-0.1-0.2-0.4-0.9-10.7,0.6
			c-0.2,0-0.3,0.2-0.3,0.4S251.1-82.2,251.3-82.2L251.3-82.2z"/>
		<path class="st2" d="M304-97.4c0.3,0.5,0.5,1,0.5,1.6c0.2,1.1,0.5,2.4,1.5,2.5c1,0.1,8.4,2.2,12.2,3.3c0.2,0.1,0.4,0,0.4-0.2
			s0-0.4-0.2-0.4c0,0,0,0,0,0c-0.5-0.1-11-3.2-12.3-3.3c-0.5-0.1-0.7-1.1-0.9-2c-0.1-0.7-0.3-1.3-0.7-1.9c-0.7-0.8-4.9-6.3-4.9-6.3
			c-0.1-0.2-0.3-0.2-0.5-0.1c-0.2,0.1-0.2,0.3-0.1,0.5C299.2-103.6,303.2-98.3,304-97.4z"/>
		<path class="st2" d="M315.2-51.1c0.1,0.1,0.4,0.1,0.5,0c0.1-0.1,0.1-0.4,0-0.5c0,0,0,0,0,0c-1.4-1.2-3.6-3.2-5.9-5.2l4.3-4.8
			c0.1-0.1,0.1-0.4,0-0.5s-0.4-0.1-0.5,0l0,0l-4.3,4.8c-4.6-4-9.4-8.2-9.7-8.5c-0.2-0.3-0.7-0.4-5.5-0.4c-1.1,0-2,0-2.3,0
			s-1.4,0.9-2.8,2.2c-0.1-0.1-0.3-0.1-0.5,0.1c-0.1,0.1-0.1,0.3,0,0.4c-3.1,3-7.6,7.7-10.6,11.1c-0.1,0.1-0.1,0.4,0,0.5
			c0.1,0.1,0.4,0.1,0.5,0c1.3-1.4,2.8-3.1,4.4-4.7l7.7,6l-4.3,4.3c-0.1,0.1-0.1,0.4,0,0.5s0.4,0.1,0.5,0l16.2-16.2
			c1.8,1.5,3.9,3.4,6,5.2l-5.1,5.6c-0.1,0-0.2,0-0.2,0.1c-0.1,0.1-0.1,0.2-0.1,0.3l-10.2,11.2c-0.1,0.1-0.1,0.4,0,0.5s0.4,0.1,0.5,0
			l10.1-11.2l5.7,5.4c0.1,0.1,0.4,0.1,0.5,0c0.1-0.1,0.1-0.4,0-0.5l0,0l-5.8-5.4l5-5.5C311.7-54.1,313.9-52.2,315.2-51.1z M290.9-51
			l-7.7-6c2.1-2.2,4.1-4.3,5.7-5.9l7.7,6.3L290.9-51z M297-57.2l-7.7-6.2c0.7-0.7,1.4-1.4,2.3-2c0.3,0,1.2,0,2.4,0
			c1.7,0,3.3,0,5,0.1c0.3,0.3,1.5,1.4,3.2,2.8L297-57.2z"/>
		<path class="st2" d="M345.4-21.8c1,0.5,8.8,2.4,9.9,1.5c0.6-0.4,1-1.7,1.5-3.6c0.2-0.7,0.4-1.3,0.7-1.9c0.9-0.2,5.3-1.4,5.6-2.8
			c0.2-0.8,0.5-7.4-0.1-8.1c-0.1-0.2-0.6-0.7-1.2-1.2c-0.8-0.9-2.4-2.5-2.6-2.9c-0.1-0.6-0.5-3.8-0.7-4.8c0-0.1-0.1-0.2-0.2-0.3
			c-0.4-0.2-3.8-1.8-4.8-1.8h-0.4c-2.7,0-4.4,0.1-4.7,0.9c-0.3,0.9-3.8,7.1-4.6,7.4c-0.7,0.2-3.9-0.1-5.9-0.4
			c-1.1-2.5-1.9-4.4-2-4.7c-0.3-0.8-1.2-8.2-1.8-13.7c-0.2-1.9-0.4-3.6-0.6-5c0.6-0.8,1.3-1.5,2.1-2.2c0.4,0,8.8,0.8,14.3,1.3
			c0.2,0,0.4-0.1,0.4-0.3c0,0,0,0,0,0c0-0.2-0.1-0.4-0.3-0.4c0,0,0,0,0,0c-1.4-0.1-13.9-1.3-14.4-1.3c-0.4,0-1.1,0.7-2.2,1.9
			c-0.1-0.9-0.2-1.6-0.3-1.9c-0.4-2.2-10.5-1.3-13.5-1c-0.2,0-0.3,0.2-0.3,0.4c0,0,0,0,0,0c0,0.2,0.2,0.3,0.4,0.3c0,0,0,0,0,0
			c6-0.6,12.6-0.6,12.8,0.5c0.1,0.4,0.2,1.3,0.3,2.5c-0.1,0.1-0.1,0.1-0.2,0.2c-0.1,0.1-0.1,0.4,0,0.5c0.1,0.1,0.1,0.1,0.2,0.1h0
			c0.2,1.3,0.3,2.8,0.5,4.5c0.9,7.6,1.5,13.1,1.9,13.9c0.5,1.2,8.4,19.5,9.5,22c-2.4,1.1-9.1,6.6-14.6,11.4c-0.1,0.1-0.2,0.3,0,0.5
			c0.1,0.1,0.3,0.2,0.5,0c0,0,0,0,0,0c6.2-5.4,13.3-11.1,14.6-11.4c0,0,0,0,0,0C345.4-21.8,345.4-21.8,345.4-21.8z M338.4-39.1
			c1.3,0.2,4.9,0.6,5.8,0.3c1.2-0.4,4.9-7.2,5.1-7.8c0.1-0.1,0.6-0.5,4-0.4h0.4c1.5,0.4,3,0.9,4.3,1.6c0.3,1.7,0.6,4.4,0.6,4.6
			c0,0.2,0.1,0.4,2.8,3.3c0.5,0.6,1,1.1,1.1,1.2c0.3,0.6,0.2,6.4-0.1,7.6c-0.2,0.7-4.4,2.2-5.1,2.2c-0.5,0-0.7,0.6-1.2,2.4
			c-0.3,1.2-0.9,2.9-1.3,3.2c-0.7,0.5-7.9-0.9-9.2-1.6c-0.1,0-0.1,0-0.2,0C345-23.9,341-33,338.4-39.1L338.4-39.1z"/>
		<path class="st2" d="M338.8-24.5c-0.8,0.7-5.5,3.2-7.3,4.2c-0.2,0.1-0.2,0.3-0.2,0.5s0.3,0.2,0.5,0.2c0,0,0,0,0,0
			c0.7-0.4,6.7-3.7,7.5-4.4c0.5-0.4,0.2-2-7.7-19.4c-0.8-1.7-1.4-3.1-1.5-3.3c0-0.1-0.1-0.2-0.2-0.3c-0.1-0.1-0.6-0.3-5.4,1.6
			c-0.2,0.1-0.3,0.3-0.2,0.5c0.1,0.2,0.3,0.3,0.4,0.2c1.6-0.7,3.2-1.2,4.8-1.6c0.1,0.3,0.5,1.1,1.4,3.2
			C333.1-38.4,338.7-25.9,338.8-24.5z"/>
		<path class="st2" d="M384.6-22.3c-0.2-0.1-0.4,0-0.5,0.1c-0.8,1.5-4.6,9-4.3,10.3c0.2,0.7,0.6,1.3,1.1,1.8
			c0.5,0.7,1.1,1.5,0.9,1.9c0,0.1-0.2,0.5-0.5,1c-1.1-1.3-2.4-2.4-3.9-3.2c-1.8-1-8.1-1.8-10.5-2.1c-0.3,0-0.5-0.1-0.7-0.1l-0.7-0.1
			c-2-0.3-3.9-0.6-5.9-0.6c-1.3,0.1-9.5,17-14.3,27.1c-0.1,0.2,0,0.4,0.2,0.5c0.2,0.1,0.4,0,0.5-0.2c4.7-10,12.6-26.1,13.7-26.7
			c1.9,0.1,3.9,0.3,5.8,0.6l0.7,0.1c0.1,0,0.4,0.1,0.7,0.1c2.1,0.3,8.6,1.1,10.3,2c1.4,0.9,2.7,2,3.9,3.3
			c-2.4,4.7-9.4,17.8-9.9,18.4c-0.5,0.2-1.1,0.2-1.7,0.2c-1.1,0-1.9,0-2.1,0.5c-0.3,0.6-2.9,8.8-3,9.2c-0.1,0.2,0,0.4,0.2,0.4
			c0,0,0.1,0,0.1,0c0.2,0,0.3-0.1,0.3-0.2c0.8-2.4,2.8-8.7,3-9.1c0.5-0.1,1-0.2,1.5-0.2c1.2,0,1.9-0.1,2.2-0.5
			c0.7-0.8,10.5-19.4,10.8-20.3c0.3-0.8-0.4-1.7-1-2.6c-0.4-0.5-0.7-1-1-1.5c-0.2-0.7,2-5.5,4.2-9.8C384.8-22,384.7-22.2,384.6-22.3
			C384.6-22.3,384.6-22.3,384.6-22.3z"/>
		<path class="st2" d="M327.4-90.4c3.4-3.7,8.6-8.9,9.3-9.1c0.6,0.1,3.8,2.9,6.8,5.6l-9.2,9.4c-0.1,0.1-0.1,0.4,0,0.5
			c0.1,0.1,0.4,0.1,0.5,0l9.2-9.4c1.8,1.6,3.5,3.2,5.1,4.9c0.1,1.4,0.1,2.9-0.1,4.3c-5.2,3.2-5.2,3.4-5.2,3.6
			c0.1,0.4,0.3,0.8,0.6,1.1c0.4,0.6,0.7,1.1,0.9,1.8c-0.9,1.4-2,2.6-3.2,3.8c-0.1,0.1-0.1,0.4,0,0.5c0.1,0.1,0.3,0.1,0.5,0
			c1.6-1.6,3.4-3.6,3.4-4.2c-0.2-0.8-0.6-1.5-1-2.1l-0.4-0.7c0.6-0.5,3.2-2.1,4.9-3.2c0.1-0.1,0.2-0.2,0.2-0.3c0-0.1,0-0.1,0-0.2
			c1.3,0.2,2.6,0.3,3.9,0.4c0.1,0,0.2,0,0.4,0c0.7,0,2.9-1.7,7.4-5.1c2.6-2,5.7-4.4,6.2-4.5c0.9,0.2,10.6-1.6,13.4-2.1
			c0.2,1,0.3,1.9,0.1,2.9c-0.2,0.6-3.6,3.7-6,5.7l-6.8,2.1c-0.2,0.1-0.3,0.2-0.2,0.4c3.4,13.4,3.8,13.6,3.9,13.7
			c0.1,0.1,0.3,0.1,0.4,0.1c2-0.2,3.9-0.8,5.8-1.6c0.4-0.1,0.7-0.4,0.8-0.8c0-0.7-2.6-10.9-3.3-13.5c1.3-1.1,5.8-4.9,6.1-5.9
			c0.2-1.2,0.1-2.4-0.2-3.6c-0.1-1.5-2.6-6.8-2.9-7.4c-0.1-0.2-0.3-0.3-0.5-0.2c-0.2,0.1-0.3,0.3-0.2,0.5c0,0,0,0,0,0
			c1.1,2.2,2.1,4.5,2.8,6.9c-4.9,0.9-12.5,2.2-13.1,2.1c-0.5-0.1-2,1-6.8,4.6c-2.7,2.1-6.4,4.9-7,5c-1.4,0-2.8-0.2-4.1-0.4
			c0.2-1.3,0.2-2.6,0-3.9c-1.6-1.8-3.4-3.6-5.3-5.2l10.1-10.3c0.1-0.1,0.1-0.4,0-0.5c-0.1-0.1-0.4-0.1-0.5,0L344-94.4
			c-3.2-2.9-6.6-5.7-7.3-5.7c-1,0-7.2,6.5-9.8,9.3c-0.1,0.1-0.1,0.4,0,0.5S327.3-90.3,327.4-90.4L327.4-90.4z M378.2-73.1
			c-0.5,0.5-4.8,1.7-5.8,1.7l0,0c-0.4-1.1-2.3-8.3-3.6-12.9l6.2-1.9C376.3-81.2,378.1-73.9,378.2-73.1L378.2-73.1z"/>
		<path class="st2" d="M239.4-44.7c7-0.8,22.4-2.7,25.5-3.5c0.2,1.3,0.8,4.9,1.4,7.6c-2,2-5.2,5.8-8,9.1c-0.1,0.1-0.1,0.4,0,0.5
			s0.4,0.1,0.5,0c0,0,0,0,0,0c2.7-3.3,5.8-6.9,7.6-8.8c0.2,0.8,0.4,1.5,0.8,2.2c0.9,1.2,12.1,10.1,14.1,11.7l-2.7,3
			c-0.1,0.1-0.1,0.4,0,0.5c0,0,0,0,0.1,0l3.8,2.4c0.2,0.1,0.4,0.1,0.5-0.1c0.1-0.2,0.1-0.4-0.1-0.5l-3.4-2.2l2.7-2.9
			c0.1-0.1,0.1-0.4,0-0.5c0,0,0,0,0,0c-4.6-3.7-13.5-10.9-14.3-11.8c-0.4-0.7-0.6-1.5-0.8-2.3c0.3-0.3,0.6-0.6,1-0.9
			c1.5,0.9,3,2,4.4,3.1c0,0.1,0,0.2,0.1,0.3c0.1,0.1,0.2,0.1,0.3,0.1c0,0,0.1,0,0.1,0c2.8,2,5.6,4.2,8.2,6.6c0.3,0.7,2,3.3,5.3,7.7
			c0.1,0.2,0.3,0.2,0.5,0.1c0.1-0.1,0.2-0.3,0.1-0.5c-2.3-3.1-4.8-6.6-5.1-7.3l7.9-8.6c0.1-0.1,0.1-0.4,0-0.5
			c-0.1-0.1-0.4-0.1-0.5,0l-7.7,8.5c-2-1.8-4-3.5-6.2-5c-0.5-0.4-1.1-0.9-1.8-1.4c1.2-1.2,3.9-4,3.9-5.1c0-1.3-9.1-8.8-9.9-8.8
			c-0.4,0-0.8,0.6-1.7,2c-0.3,0.5-0.6,0.9-0.9,1.4c-0.9,0.5-15.9,2.4-25.7,3.6c-0.2,0.1-0.3,0.3-0.2,0.4
			C239.2-44.8,239.3-44.7,239.4-44.7z M266.6-50c0.3-0.6,0.7-1.1,1.1-1.6c1.2,0.6,8.9,7.1,9.1,8.1c0,0.6-1.9,2.8-3.8,4.7
			c-1.5-1.2-3.1-2.3-4.8-3.3h0c-0.5,0.2-0.9,0.4-1.2,0.8c-0.5-2.2-1-5.1-1.3-7.4C266-49,266.3-49.5,266.6-50L266.6-50z"/>
		<path class="st2" d="M316.5-15.6l-9.1,3.7l-5.9-6.3c0,0,0,0-0.1,0c1.4-1.5,3.3-3.6,5.7-6.3c0.1-0.1,0.1-0.4,0-0.5
			c-0.1-0.1-0.4-0.1-0.5,0l0,0c-1.4,1.6-3.2,3.6-4.9,5.4c0-0.1,0-0.1-0.1-0.2l-8.6-7.9c-0.1-0.1-0.4-0.1-0.5,0
			c-0.1,0.1-0.1,0.4,0,0.5l8.6,7.9c0.1,0,0.1,0.1,0.2,0.1c-0.7,0.8-1.4,1.5-2.1,2.2l-8.6-7.7c-0.1-0.1-0.4-0.1-0.5,0
			c-0.1,0.1-0.1,0.4,0,0.5c0,0,0,0,0,0l8.6,7.7c-1.1,1.2-2,2-2.3,2.3c-1-0.6-7-5.5-10.6-8.5c-0.1-0.1-0.4-0.1-0.5,0
			c-0.1,0.1-0.1,0.4,0,0.5c0,0,0,0,0,0c10.5,8.7,10.9,8.7,11.1,8.7c0.1,0,0.3,0,2.9-2.6c0,0,0,0,0,0c0.1,0,0.2,0,0.3-0.1
			c0.1-0.1,0.1-0.2,0.1-0.3c0.4-0.4,0.8-0.9,1.3-1.4v0l5.7,6.1l-14.7,6c-0.2,0.1-0.3,0.3-0.2,0.5c0.1,0.2,0.3,0.3,0.5,0.2l15-6.1
			l0,0c0.1,0.1,0.4,0.1,0.5,0c0,0,0,0,0,0c0.1-0.1,0.1-0.2,0.1-0.3l8.9-3.6c0.2-0.1,0.3-0.3,0.2-0.4
			C316.9-15.6,316.7-15.7,316.5-15.6C316.5-15.6,316.5-15.6,316.5-15.6z"/>
		<path class="st2" d="M69.7-68.2L69.7-68.2c0,0,1.8,0,3.8-0.1c0.1,0.1,0.2,0.2,0.3,0.2l0,0c0.1,0,0.3-0.1,0.3-0.2h0.2
			c0.5,7.9,0.8,16.6,0.2,17.3c-0.7,0.6-3.6,0.7-4.7,0.7c-0.2,0-0.3,0.2-0.3,0.3c0,0.2,0.2,0.4,0.3,0.4c0.4,0,4,0,5.1-0.8
			c1-0.8,0.4-12.4,0-17.9c1.7,0,3.2,0,3.7,0c1.6,0,6.3-3.6,7.1-6.2c0.8-2.5,1.2-29.3,1.3-30.5c0-0.2-0.2-0.4-0.3-0.4c0,0,0,0,0,0h0
			c-0.2,0-0.3,0.2-0.3,0.3c-0.2,9.6-0.7,28.3-1.2,30.3C84.5-72.4,80-69,78.8-69c-0.6,0-2.2,0-4,0c-0.1-0.1-0.2-0.1-0.3,0l-0.3,0
			l0.2-35.8c0-0.2-0.2-0.4-0.3-0.4c0,0,0,0,0,0l0,0c-0.2,0-0.3,0.2-0.3,0.3L73.4-69c-2,0-3.7,0.1-3.8,0.1c-0.2,0-0.3,0.2-0.3,0.4
			C69.3-68.3,69.5-68.2,69.7-68.2z"/>
		<path class="st2" d="M68.8-6c0.1,0.2,0.3,0.3,0.5,0.2s0.3-0.3,0.2-0.5c0,0,0,0,0,0c-0.6-1.6-1.3-3.1-2.2-4.6
			c-0.5-0.5-11.6-8.1-12.5-8.2c-0.8-0.4-5.8-8.3-6.1-9.6C49.3-29.5,56.5-33,63-36c4.4,3,9.7,6.6,14.6,10.1c0,0,0,0,0,0
			c0,0.1,0.1,5.6,0,6.8c-0.1,0.5-1.7,1.9-2.8,2.8c-1.6,1.3-2.2,1.8-2.2,2.3c0,0.8,0.7,7.3,0.8,7.5c0,0.2,0.2,0.3,0.3,0.3h0
			c0.2,0,0.3-0.2,0.3-0.4c0,0,0,0,0,0c-0.3-2.3-0.7-6.9-0.8-7.4c0.6-0.7,1.2-1.3,1.9-1.8c1.8-1.5,3-2.5,3.1-3.2c0.1-1.1,0-5.1,0-6.5
			c2.8,2,5.5,3.9,7.9,5.6c0,0,0,0,0,0c-0.2,0.3-2.3,3-2.3,4.6c0,1.5,0.6,8.2,0.6,8.5c0,0.2,0.2,0.3,0.3,0.3h0c0.2,0,0.3-0.2,0.3-0.4
			c0-0.1-0.6-7-0.6-8.5c0-1.1,1.6-3.4,2.2-4.2c0,0,0,0,0-0.1c2.6,1.7,5,3.6,7.4,5.6c0.1,1.1,0.4,7,0.4,7c0,0.2,0.2,0.3,0.3,0.3h0
			c0.2,0,0.3-0.2,0.3-0.4c0-0.3-0.3-6.2-0.4-7.2S75.1-28.6,63.4-36.6c-0.5-3.9-1.2-9.7-1.2-10c0.4-0.7,1-1.4,1.5-2
			c0.4-0.5,0.8-0.9,1.1-1.3l0,0l0,0c0.5-0.7,2.7,0,3.7,0.5c0.2,0.1,0.4,0,0.5-0.2s0-0.4-0.2-0.5c-0.3-0.2-3.1-1.4-4.3-0.5
			c-1.2-0.9-2.2-1.9-3.3-3c0-0.9,0-4.4,0.1-5.5c0.1-0.8-1.6-2.8-5.5-7.4c-1.4-1.6-2.7-3.1-3.1-3.7C51.5-72.1,48-92.6,48-93.8
			c0-1-2.1-3.3-5.1-6.4c-0.9-0.8-1.7-1.7-2.4-2.6c-0.2-0.4-0.3-1,0-1.4c0.1-0.2,0.1-0.4-0.1-0.5c-0.2-0.1-0.4-0.1-0.5,0.1
			c-0.4,0.6-0.4,1.4,0,2.1c0.8,1,1.6,1.9,2.5,2.8c1.8,1.9,4.9,5.1,4.9,5.9c0,1.8,3.5,22,4.8,23.9c0.5,0.7,1.7,2.1,3.2,3.8
			c2,2.3,5.4,6.1,5.4,6.8c-0.1,1.2-0.1,4.9-0.1,5.7c0,0.2,0,0.5,3.5,3.4c-0.3,0.3-0.6,0.7-0.9,1c-1.2,1.4-1.7,2-1.7,2.4
			c0,0.5,1,8.3,1.2,10c-14.7,6.7-14.7,7.6-14.7,7.8c0,1,5.5,10.2,6.7,10.3c0.8,0.2,11.5,7.3,12.2,8C67.6-9,68.3-7.5,68.8-6z"/>
		<path class="st2" d="M97.8,43.9c-0.1,0.2,0,0.4,0.1,0.5c0.2,0.1,0.4,0,0.5-0.1c2.6-4.7,9.8-17.2,11-18.3c1.6-1.4,7.6-7.5,7.9-7.8
			c0.1-0.1,0.1-0.4,0-0.5c-0.1-0.1-0.4-0.1-0.5,0l0,0c-0.1,0.1-6.3,6.4-7.9,7.7C107.4,26.8,98.2,43.2,97.8,43.9z"/>
		<path class="st2" d="M90.5-5.5c-0.1,0.1-0.1,0.4,0,0.5c0,0,0,0,0,0l6.2,5.1c-0.1,5.1-0.4,12.8-0.7,13.8
			c-1.1,0.4-10.6-1.3-12.3-1.7c0-1.4,0-2.7,0.2-4.1c0.3-4.6,0.3-5.5-0.1-5.8c-2-0.4-4.1-0.6-6.1-0.7l-0.5-6.6c0-0.2-0.2-0.3-0.4-0.3
			c-0.2,0-0.3,0.2-0.3,0.4l0,0L77,1.5c-2.8-0.2-5.7-0.4-7.1-0.5c-0.2,0-0.4,0.1-0.4,0.3c0,0,0,0,0,0c0,0.2,0.1,0.4,0.3,0.4
			c0,0,0,0,0,0C72,1.8,74.7,2,77.1,2.2l1,13.5c0,0.2,0.2,0.3,0.3,0.3h0c0.2,0,0.3-0.2,0.3-0.4c0,0,0,0,0,0l-1-13.4
			c2.8,0.2,5.2,0.5,5.6,0.6c0.1,1.7,0,3.5-0.2,5.2c-0.3,4.2-0.3,4.6,0.2,4.8c0.1,0,8.5,1.7,11.9,1.7c0.5,0.1,0.9,0,1.3-0.3
			c0.5-0.7,0.7-9.6,0.8-13.6l10.1,8.2l0,0c-1.1,0.6-2.1,1.2-3.3,1.6c-1.2,0-1.6,6.4-1.6,6.4c-0.2,0.9-7.9,11.7-13.1,18.7
			c-0.1,0.2-0.1,0.4,0.1,0.5c0.2,0.1,0.4,0.1,0.5-0.1c0,0,0,0,0,0c4-5.4,13.2-18.2,13.2-19.1c0-1,0.6-5.2,1-5.8c1-0.2,5.7-2.9,7.7-4
			c0.2-0.1,0.2-0.3,0.1-0.5c-0.1-0.2-0.3-0.2-0.5-0.1c-1.2,0.7-2.5,1.4-3.6,2c0-0.1-0.1-0.2-0.1-0.2L97.5-0.3v-0.2
			c0-0.2-0.2-0.4-0.3-0.4c0,0,0,0,0,0c-0.1,0-0.1,0-0.2,0.1l-6-4.9C90.9-5.7,90.6-5.7,90.5-5.5C90.5-5.5,90.5-5.5,90.5-5.5z"/>
		<path class="st2" d="M82.4,151.6c0.9,0,4.5-2.5,10.6-6.8c1.3-0.9,2.3-1.6,2.5-1.7c0.7-0.5,1.3-1,1.9-1.6c1.7,1.9,4.2,4.6,4.7,4.7
			c0.6,0,1.2-0.2,1.8-0.5c1.1-0.4,2.9-1.1,3.4-0.7c1,0.8,38.9,25,40.5,26c0.2,0.1,0.4,0.1,0.5-0.1c0.1-0.2,0.1-0.4-0.1-0.5l0,0
			c-0.2-0.1-13.8-8.8-25.2-16.1c0.1,0,0.2-0.1,0.3-0.1c0.3-0.5,3.3-5,3.3-6.4c0-0.6-0.2-2.5-0.3-4.6c-0.2-3-0.5-6.3-0.5-7.7
			c0-1.4,1.4-3,2.6-4.4c1-1.1,1.5-1.8,1.5-2.4c0-0.7-0.1-2.4-0.1-3.8c4.3-1,8.1-1.8,8.5-1.9c0.2,0,0.3-0.2,0.3-0.4c0,0,0,0,0,0
			c0-0.2-0.2-0.3-0.4-0.3c-0.1,0-3.9,0.9-8.4,1.9c0-0.4-0.1-0.7-0.1-0.9c-0.1-0.7-1.2-1.5-3.1-2.8c-0.9-0.6-1.8-1.3-2.6-2
			c-0.2-0.3-0.3-0.7-0.4-1l12.6-1.9c0.2,0,0.3-0.2,0.3-0.4c0-0.2-0.2-0.3-0.4-0.3l-12.7,2c-1.7-5.2-5.5-20.6-5.8-22.3
			c-0.2-0.8,0.2-7.5,0.5-11.9c0.2-2.6,0.3-4.7,0.3-5.3c0-1.6-8-11.7-9.8-13.9c-0.4-2-7.8-15.2-9.3-17.9c-0.1-0.2-0.3-0.2-0.5-0.1
			c-0.2,0.1-0.2,0.3-0.1,0.5c3.5,6.3,9.2,16.8,9.2,17.7c0,0.4-2,1.6-3.3,2.5c-2.6,1.6-4.1,2.6-4.1,3.5c-0.1,2.4-0.4,4.7-0.9,7.1
			c-0.4,0.5-5.7,3-6.5,3.2c-0.6-0.9-1.1-1.8-1.5-2.8c-1.1-2.2-1.4-2.8-1.8-2.8c-0.1,0-8.3,3.5-8.3,4.6c0,0.9,4.5,4.4,5.3,4.4
			c0.9,0,4-1.7,4.4-2.6c0.2-0.4,0.5-1,0.7-1.4c0.5,1,0.8,1.3,1.2,1.3c0.7,0,6.7-2.8,7.2-3.5s1.1-5.9,1.1-7.4c0-0.6,2.3-2,3.8-3
			c1.2-0.7,2.3-1.5,3.3-2.4c3.7,4.7,9.3,12,9.3,13.1c0,0.6-0.1,2.7-0.3,5.3c-0.4,6.1-0.6,11.3-0.5,12.1c0.2,0.9,4.1,17.1,5.9,22.6
			c0,0,0,0,0,0.1c0,0,0,0.1,0,0.1c0.2,0.6,0.4,1.1,0.6,1.6c0.8,0.8,1.8,1.5,2.8,2.2c1,0.7,2.7,1.9,2.8,2.3c0,0.2,0.1,0.6,0.1,1
			c-5.2,1.2-11.1,2.4-12.3,2.6c-1.1,0.2-3.9-1.3-6.2-2.5c-3.1-1.6-4.6-2.3-5.1-1.7c-0.6,0.7-1.2,1.3-1.9,1.9c-2,1.9-2.9,2.8-2.9,3.4
			c0.1,1,0.3,2,0.6,3c0.4,1.4,0.6,2.9,0.8,4.4c0,0.6-2.5,3.3-4.5,5.1c-0.1-0.1-0.3-0.1-0.5,0c-0.1,0.1-0.1,0.3,0,0.5
			c-0.6,0.5-1.2,1-1.8,1.5c-0.2,0.1-1,0.7-2.5,1.8c-2.8,2-9.3,6.6-10.2,6.7c-1-0.1-1.9-0.3-2.9-0.5c-2.6-0.5-4.3-0.9-5-0.6
			c-0.5,0.2-1.3,1.4-2.6,3.3c-0.9,1.3-2.1,3.3-2.6,3.4c-0.7-0.1-1.4-0.3-2.1-0.5c-2.1-0.6-3.3-0.9-3.5-0.3c-0.3,1.1-0.4,2.2-0.5,3.3
			c0,0.2,0.1,0.4,0.3,0.4h0c0.2,0,0.3-0.1,0.3-0.3c0.1-1,0.2-2.1,0.4-3.1c0.9,0.1,1.8,0.3,2.7,0.6c0.7,0.3,1.5,0.4,2.3,0.5
			c0.7,0,1.5-1.1,3.1-3.7c0.6-1.1,1.4-2.1,2.2-3c0.5-0.2,3,0.3,4.6,0.6C80.4,151.3,81.4,151.5,82.4,151.6z M91.3,78.3
			c0,0-0.5,1.1-0.9,1.9c-1.1,1-2.4,1.8-3.8,2.2c-0.6-0.1-4.3-2.9-4.6-3.6c0.7-0.8,6.6-3.6,7.5-3.9c0.5,0.8,0.9,1.5,1.2,2.4
			C91,77.6,91.2,78,91.3,78.3L91.3,78.3z M102.6,135.3c-0.2-1.5-0.5-3.1-0.8-4.6c-0.3-1.2-0.5-2.5-0.6-2.8c0.8-1.1,1.7-2,2.7-2.9
			c0.7-0.6,1.3-1.2,1.9-1.9c0.4-0.2,2.7,1,4.3,1.8c2.6,1.3,5.3,2.7,6.6,2.5c1.3-0.2,7-1.4,12.2-2.6c0.1,1.3,0.1,2.9,0.1,3.6
			c-0.3,0.7-0.8,1.4-1.4,1.9c-1.2,1.4-2.7,3.2-2.7,4.8c0,1.4,0.3,4.8,0.5,7.8c0.2,2.2,0.3,4,0.3,4.6c0,0.9-2,4.2-3.2,6.1
			c-0.1,0.1-0.1,0.2,0,0.3c-7.9-5-14.6-9.4-15-9.7c-0.7-0.6-2.2-0.1-4.1,0.6c-0.5,0.2-0.9,0.3-1.4,0.5h0c-1.6-1.4-3-2.9-4.4-4.5
			C100,139,102.6,136.3,102.6,135.3z"/>
		<path class="st2" d="M158.1,276.9c-0.1-0.1-0.2-0.1-0.3-0.1l-3.6,0.3c-0.3-5.6-1-13.4-1.7-19.6c-0.5-4.8-0.9-8.5-0.9-9.8
			c0-3.9,4.8-15.2,4.8-15.4c0.1-0.2,0-0.4-0.2-0.5s-0.4,0-0.5,0.2c-1.7,4.1-3.2,8.2-4.4,12.5c-0.1,0-0.1,0-0.2,0L117.1,267
			l-9.1-12.8c-0.1-0.2-0.3-0.2-0.5-0.1c-0.1,0.1-0.2,0.3-0.1,0.5l13.5,19l11,17.6c-1.3,1-8.1,4.8-14.6,8.2c0.1-0.1,0.1-0.2,0-0.4
			l-6.5-10.5c2.8-1.5,10.3-5.8,10.7-7.1c0.3-1.4-12.3-19.7-16.2-25.3c-0.1-0.2-0.3-0.2-0.5-0.1c-0.2,0.1-0.2,0.3-0.1,0.5
			c0,0,0,0,0,0c6.2,8.9,16,23.5,16.1,24.7c-0.2,0.7-5.4,3.9-10.4,6.7l-1.4-2.2c0.1-0.1,0.1-0.4-0.1-0.5c-0.1-0.1-0.2-0.1-0.3-0.1
			l-5.9-9.6c2.2-1.5,3.8-2.7,3.8-3.1c0.2-1.2-6.9-10.7-9.1-13.6c-0.1-0.2-0.3-0.2-0.5-0.1c-0.1,0.1-0.2,0.3-0.1,0.5
			c4.3,5.7,8.9,12.2,8.9,13c-0.5,1-12.8,8.6-20.3,13.1c-2.3,1.3-10,5.5-10.3,6.5c-0.3,1,4.6,7.3,7.6,11c0.1,0.2,0.3,0.2,0.5,0.1
			s0.2-0.3,0.1-0.5c0,0,0,0,0,0c-3.7-4.5-7.4-9.6-7.4-10.3c0.3-0.6,5.1-3.5,9.7-6c3.7,6.1,12.9,21.1,13.3,22.3
			c0.3,0.5,0.7,0.9,1.3,1c-1,0.9-1.8,2-2.3,3.2c-0.3,1.7,3.4,8.9,3.9,9.7c0.1,0.1,0.2,0.2,0.3,0.2c0.1,0,0.1,0,0.2,0
			c0.2-0.1,0.2-0.3,0.1-0.5c-1.6-3-4-8.1-3.8-9.3c0.6-1.2,1.4-2.3,2.4-3.1c1.4,0.2,2.8,0.3,4.1,0.3c0.5,0,1,0,1.5,0
			c0.2,0,0.3,0,0.4,0c1.2,0,29.6-18,30.9-19.6c1.8-2.2,6.4-25.1,6.4-27.2c0-1.9,4.5-9.7,6.6-13.2c0.2,1.9,0.4,4.5,0.7,7.6
			c0.9,9.4,2.4,23.6,1.5,26.3c-1.3,4.1-23.4,48.3-23.6,48.8v0l-4.8-2.1c0.5-2.2,3.8-15.5,3.8-18.5c0-3,6.9-13.7,6.9-13.8
			c0.1-0.2,0.1-0.4-0.1-0.5c-0.2-0.1-0.4-0.1-0.5,0.1c-0.3,0.4-7.1,11-7.1,14.2c0,3.1-3.8,18.4-3.8,18.6c0,0.2,0,0.3,0.2,0.4
			l10.8,4.7c0.2,0.1,0.4,0,0.5-0.2l23.3-47.8c0-0.1,0-0.1,0-0.2l-0.8-10.5C158.2,277,158.2,277,158.1,276.9z M86.4,285.9
			c4.1-2.4,11.3-6.8,16-10l5.8,9.5l-16.7,8.9C89.2,290.5,87,287,86.4,285.9L86.4,285.9z M100.9,309c-0.5,0-0.9-0.2-1.2-0.6
			c-0.3-0.8-4.3-7.5-7.8-13.4l16.7-8.9l8.2,13.3c0.1,0.1,0.2,0.2,0.3,0.2c-5.7,3.1-11.1,5.9-12.1,6.3
			C103.5,306.7,102.1,307.8,100.9,309z M150.9,249c-0.3,0.5-7.1,11.6-7.1,14.2c0,2.7-4.7,24.9-6.3,26.8c-1.6,1.9-29.2,19-30.4,19.4
			c-0.1,0-0.2,0-0.4,0c-1.7,0.1-3.4,0-5-0.2c1-1,2.2-1.9,3.4-2.7c1.5-0.7,26.2-13.7,27.5-15.1c0,0,0,0,0,0l0,0
			c0.6-0.8,2.4-6.4,5.1-15.4c2-6.5,4-13.2,4.7-14.5c1.2-2.3,6.7-10.2,8.5-12.8c0,0,0,0.1,0,0.1C151,248.9,151,248.9,150.9,249
			L150.9,249z M151.1,247.5c-0.8,1.1-7.7,10.9-9.1,13.6c-0.7,1.4-2.7,7.8-4.8,14.6c-1.8,5.8-3.9,12.8-4.8,14.7l-10.9-17.3l-4-5.6
			l33.8-22.1C151.2,246.1,151.1,246.8,151.1,247.5L151.1,247.5z M135.2,335l-4.8-2.1c1.1-2.1,22.4-44.7,23.7-48.9
			c0.4-2.1,0.4-4.2,0.2-6.3l3.3-0.3l0.8,10.1L135.2,335z"/>
		<path class="st2" d="M297.3,238.7l-33.5,11.8c-0.2,0.1-0.3,0.2-0.2,0.4l0.5,4l-7.8,2.3l-0.1-4.8l0.2-7h6.2c0.2,0,0.3-0.1,0.3-0.3
			l1.2-15.3c0-0.2-0.1-0.4-0.3-0.4c0,0,0,0,0,0l-8.3-0.2c-0.3-0.4-0.7-0.8-1-1.2c0,0,0-0.1,0-0.1l-0.1-9c0.2,0,0.3-0.2,0.3-0.4
			c0-0.2-0.1-0.3-0.3-0.3l-0.1-4.2l21.4-0.7c0.2,0,0.3-0.2,0.3-0.4c0,0,0,0,0,0c0-0.2-0.1-0.3-0.3-0.3c0,0,0,0,0,0l-5.5,0.2
			l-0.1-6.4l5.4,0c0.2,0,0.3-0.2,0.3-0.4c0-0.2-0.2-0.3-0.4-0.3l-5.4,0l-0.1-11.2c0-0.2-0.2-0.3-0.4-0.3l0,0c-0.2,0-0.3,0.2-0.3,0.4
			l0.1,11.2l-7.8,0.1l-0.6-11.1c0-0.2-0.2-0.3-0.4-0.3c-0.2,0-0.3,0.2-0.3,0.4l0.6,11.1l-6.7,0.1l-0.2-11.8c0-0.2-0.2-0.3-0.3-0.3
			c0,0,0,0,0,0c-0.2,0-0.3,0.2-0.3,0.4c0,0,0,0,0,0l0.2,12.1c0,0,0,0.1,0,0.1l0.1,7.2c-0.1,0.1-0.1,0.2-0.1,0.3
			c0,0.1,0.1,0.2,0.1,0.2l0.1,4.2l-6.7-0.1c-0.1-2.1-1.1-12.5-1.2-13c0-0.2-0.2-0.3-0.4-0.3c-0.2,0-0.3,0.2-0.3,0.4
			c0.4,4.3,1.2,12.7,1.2,13.3v0c0,0.1,0,0.1,0,0.2c0.7,1.3,1.5,2.5,2.5,3.6c-4.4,3.4-11.6,8.9-18.6,14.1l-7.5-10.7
			c-0.1-0.2-0.3-0.2-0.5-0.1c-0.1,0.1-0.2,0.3-0.1,0.5l7.5,10.7c-3.4,2.5-6.7,5-9.5,7l-8.1-11.1c-0.1-0.2-0.3-0.2-0.5-0.1
			c-0.2,0.1-0.2,0.3-0.1,0.5l8.1,11.1c-4.4,3.2-7.6,5.5-8.2,5.6c-2.3,0.7-14.9,4.1-15,4.2c-0.2,0.1-0.3,0.2-0.2,0.4
			c0,0.2,0.2,0.3,0.3,0.3c0,0,0.1,0,0.1,0c0.1,0,12.7-3.5,15-4.2c0.7-0.2,4-2.5,8.5-5.8l3.2,4.4l-8.1,6l-16.3,5
			c-0.2,0.1-0.3,0.3-0.2,0.4c0,0.1,0.2,0.2,0.3,0.2c0,0,0.1,0,0.1,0l16.3-5c0,0,0.1,0,0.1-0.1l8.2-6l2.7,3.8
			c-7.7,5.4-15.8,10.9-17.1,11.3c-2.4,0.8-8.3,0.2-8.4,0.2c-0.2,0-0.4,0.1-0.4,0.3c0,0.2,0.1,0.4,0.3,0.4c0,0,0,0,0,0
			c0.1,0,2.3,0.3,4.6,0.3c1.4,0,2.7-0.1,4-0.4c1.5-0.5,10-6.4,17.2-11.4l3.3,4.5l-17.2,12.1c-0.2,0.1-0.2,0.3-0.1,0.5
			c0.1,0.2,0.3,0.2,0.5,0.1c0,0,0,0,0,0l23.7-16.7c0.1,2.5,0.2,4.8,0.2,5.6c0,1.3-3.6,6.7-6.1,10.1c-0.1,0.2-0.1,0.4,0.1,0.5
			c0.2,0.1,0.4,0.1,0.5-0.1c0,0,0,0,0,0c0.6-0.8,5.7-7.8,6.2-10.2h17.8l-1.6,7.2c0,0.2,0.1,0.4,0.3,0.4c0,0,0,0,0,0c0,0,0,0,0.1,0
			c0.2,0,0.3-0.1,0.3-0.3l1.7-7.7c0,0,0,0,0,0c0,0,0,0,0,0l0-2.1l7.9-2.3l1.3,10.8c0,0.2,0.2,0.3,0.3,0.3h0c0.2,0,0.3-0.2,0.3-0.4
			l-1.3-10.9l30.7-9c0.2-0.1,0.3-0.3,0.2-0.4s-0.3-0.3-0.4-0.2l-30.6,9l-0.4-3.6l33.2-11.7c0.2-0.1,0.3-0.3,0.2-0.4
			S297.5,238.6,297.3,238.7L297.3,238.7z M269.2,206.4l0.1,6.4l0,0l-7.5,0.2l-0.4-6.6L269.2,206.4z M263.2,230l-1.1,14.6h-5.8
			l-0.8-14.8L263.2,230z M260.7,206.5l0.4,6.6l-7,0.2l-0.1-6.8L260.7,206.5z M246.9,218.7l6.5,0.1l0.1,8.3c-1.4-1.6-2.8-3.4-4-5
			c0.1-0.1,0.1-0.3-0.1-0.4c-0.1-0.1-0.2-0.1-0.3,0C248.1,220.3,247.3,219.3,246.9,218.7L246.9,218.7z M249,222.6
			c1.1,1.4,2.4,3,3.6,4.4c0,0,0,0,0,0l-19,14.2l-3.2-4.5C238.7,230.5,247,224.2,249,222.6z M220.4,244.2c2.9-2.1,6.2-4.5,9.5-7
			l3.2,4.5l-4.1,3.1l-5.3,3.9L220.4,244.2z M224,249.2l5.3-3.9l4.1-3.1l2.8,4.1c-2.7,1.9-6,4.3-9.5,6.7L224,249.2z M230.5,258
			l-3.3-4.5c4.2-3,7.9-5.6,9.3-6.5c0.1,1.2,0.2,3.9,0.4,6.6L230.5,258z M236.7,245.7l-2.7-3.9l19-14.2c0,0,0,0,0-0.1
			c0.7,0.8,1.3,1.5,1.7,2.1l0.8,15c-2.2,0.2-5.9,0.4-6.7,0.5c-0.2-1.3-0.1-2.6,0.1-3.9c0-0.2-0.1-0.4-0.3-0.4c0,0,0,0,0,0
			c-0.1,0-6.7,0.2-8,0.2C239.3,241,237.5,244.1,236.7,245.7L236.7,245.7z M237.1,246.4c1.2-2.3,2.8-4.7,3.5-4.7
			c1.1,0,6.1-0.1,7.6-0.2c-0.1,1.3-0.3,3.6,0.2,4.1c0.1,0.1,0.2,0.2,0.4,0.2c0.6,0,5.4-0.4,6.8-0.5l-0.1,6.6l-17.9,1.4
			C237.3,250.3,237.1,247,237.1,246.4L237.1,246.4z M237.7,259.6c0-1-0.1-3.2-0.2-5.5l17.9-1.4l0.1,4.7c-0.1,0.1-0.1,0.2-0.1,0.3
			c0,0.1,0.1,0.1,0.1,0.2l0,1.7L237.7,259.6L237.7,259.6z"/>
	</g>
	<g class="st0">
		<path class="st3" d="M178.8-93.6c0,4.8,0,9.8,1.8,12.6c1.8,2.9,3.7,8.8,2.6,10.9c-1,2.1-2.1,6.2-1.1,8.8c0.3,1,1,1.7,1.9,2.2
			c1.9,0.9,2.8,7.7,2.8,13.6c0,3.2,1.7,10.6,2.5,14.2l0.2,0.7c0.4,2-2.6,10.3-4.6,15.2c-0.2,0.4,0,0.8,0.4,1c0.4,0.2,0.8,0,1-0.4
			c0.6-1.3,5.4-13,4.7-16.1l-0.2-0.7c-0.7-3.3-2.5-10.9-2.5-13.9c0-4-0.4-13.5-3.7-15c-0.5-0.3-0.9-0.7-1.1-1.3
			c-0.8-2.1,0.1-5.8,1.1-7.7c1.6-3.2-1.2-10.1-2.7-12.4c-1.6-2.5-1.6-7.5-1.6-11.9c0-4.9-5.7-9-6-9.2c-0.3-0.2-0.8-0.2-1,0.2
			s-0.2,0.8,0.2,1C173.5-101.5,178.8-97.7,178.8-93.6z"/>
		<path class="st3" d="M331.4,7.1c-0.2-0.2-0.5-0.2-0.8-0.1c-1.5,0.8-5.8,2.9-7.4,2.9c-14.7,0-40.5-0.3-44.3-1.5
			c-2.8-0.9-23.5-18.9-38.6-32.1c-15.6-13.6-19.9-17.3-20.8-17.5c-1.9-0.3-3.9-0.3-5.8,0c-0.4,0.1-0.7,0.5-0.6,0.9
			c0.1,0.4,0.4,0.7,0.8,0.6c1.7-0.2,3.5-0.3,5.2,0c1.1,0.5,10.8,9,20.2,17.2c20.4,17.8,36.2,31.5,39.1,32.4
			c4.9,1.5,38.2,1.6,44.8,1.6c1.6,0,4.7-1.4,6.6-2.3c-1.3,4.7-3.5,11.1-5.5,11.9c-1.5,0.6-13.5,2.5-24,4.2
			c-21.9,3.6-24.3,4.1-24.7,4.7c-1,1.2-2.5,1.9-4,2c-0.6,0-2.8,0.3-6.6,0.8c-5.7,0.7-17.3,2.2-19.1,1.8l-1.6-3.1
			c-0.2-0.3-0.5-0.5-0.8-0.4l-0.1-0.2c-0.1-0.4-0.5-0.6-0.9-0.5c-0.4,0.1-0.6,0.5-0.5,0.9c0.8,2.7,2.8,10.2,2.3,12.3
			c-0.3,1-4.5,6.2-7.9,10.3c-6.9,8.3-10.1,12.4-10.1,13.9c0,3,8.7,13,12.2,14.1c2.1,0.6,6,0.1,9.4-0.5c1.8-0.3,3.5-0.5,5.3-0.5
			c1.2,0.1,4.5,2.6,7.1,4.7c3.7,2.8,5.8,4.4,7,4.4c0.6,0,2-0.8,4.6-2.4c-1.2,2-2.7,4.9-2.7,7c0,0.8,0.1,3.5,0.4,7.1
			c-0.1,0.1-0.1,0.2-0.1,0.4c0,0.2,0.1,0.3,0.2,0.4l0,0.2c0.6,9.9,1.7,30.4,0.9,32.3c-0.4,0.8-0.8,1.8-1.3,2.8
			c-0.4,0-0.7,0.3-0.8,0.7c0,0.2,0.1,0.4,0.2,0.5c-3.9,8.2-10.1,20.6-11.5,21.4c-0.7,0.4-1.8,1.1-3,2c-2.2,1.6-5.6,3.9-6.9,3.9
			c-0.5,0-1.8-0.1-3.4-0.2c-12.2-0.6-16.1-0.5-16.9,0.4c-0.7,0.9-22,18.6-28.1,22.8l-13.3-19.3c0.8-0.4,1.6-0.9,2.4-1.4
			c1.5-1.1,5.2-4.1,9-7.3c3.4,0.2,16.5,0.2,17.1,0.2c0.4,0,0.8-0.3,0.8-0.8s-0.3-0.8-0.8-0.8c-0.1,0-10.6,0-15.4-0.1
			c5-4.2,9.7-8.2,10.1-8.5c0.3-0.3,0.4-0.7,0.1-1.1c-0.3-0.3-0.7-0.4-1.1-0.1c-0.1,0.1-5.8,5-11.3,9.6c-2.6-0.3-24.2-1.6-29.6-1.9
			c-1-1.3-1.8-2.2-2.1-2.6c-2.3-2.5-8.3-19.8-8.8-25.3c-0.5-5.6,2.3-30.1,3.2-32.7c1.1-3,5.8-12.6,7-13.7c1.5-1.2,10.6-9.4,11-9.8
			c0.3-0.3,0.3-0.8,0.1-1.1c-0.3-0.3-0.7-0.3-1.1-0.1c-0.1,0.1-9.5,8.5-11,9.7c-1.3,1.1-4.4,7.4-6.3,11.4
			c-1.6-3.1-15.5-29.7-17.3-33.7c-2-4.2-9.5-17.7-9.8-18.3c-0.1-0.2-12.5-20.8-15-25.9c-3-6.2-10.1-22.5-10.2-23.9
			c0.1-1.6,0.4-3.2,0.7-4.8c0.1-0.4-0.2-0.8-0.6-0.9s-0.8,0.2-0.9,0.6l0,0c-0.4,1.7-0.6,3.4-0.8,5.2c0,1.9,8.6,21,10.3,24.6
			c2.5,5.2,14.5,25.2,15,26c0.1,0.1,7.8,14,9.7,18.2c2,4.2,16.9,32.8,17.5,34c0.1,0.2,0.3,0.4,0.6,0.4c-0.3,0.6-0.5,1.1-0.6,1.5
			c-1.1,3.1-3.8,27.9-3.3,33.3c0.5,5.5,6.5,23.2,9.2,26.2c0.2,0.3,0.7,0.8,1.2,1.5h-6.4c-2.6,0-10.2-2.2-10.3-2.2
			c-0.4-0.1-0.8,0.1-0.9,0.5c-0.1,0.4,0.1,0.8,0.5,0.9c0.3,0.1,7.9,2.3,10.7,2.3h7.2l0.4,0c2.1,2.7,5.3,6.9,8.7,11.3
			c-1.7,0.2-7.1,0.8-9.7,0.4c-3.2-0.5-16.1-3-16.2-3c-0.4-0.1-0.8,0.2-0.9,0.6c-0.1,0.4,0.2,0.8,0.6,0.9c0.5,0.1,13.1,2.5,16.3,3
			c0.8,0.1,1.6,0.2,2.5,0.1c2.8-0.1,5.5-0.3,8.3-0.6c0.1,0,0.2,0,0.2-0.1l0.6,0.8l-1.2,0.5c-4.8,2.2-9.4,4.3-11.4,5.6
			c-4,2.7-12.5,10.5-12.8,10.8c-0.3,0.3-0.3,0.7-0.1,1.1c0.3,0.3,0.7,0.3,1.1,0.1c0,0,0,0,0,0c0.1-0.1,8.8-8,12.7-10.7
			c1.9-1.3,6.6-3.4,11.2-5.5l1.5-0.7c6.2,8.2,12.3,16.3,13.2,17.4c0.5,2.2,0.8,5.6,0.1,6.5c-0.4,0.4-0.8,0.7-1.3,1
			c-0.1,0-0.2,0.1-0.3,0.1c-0.1,0.1-0.1,0.1-0.2,0.2c-5,3.3-18.5,11-19.9,11.5c-0.7,0.3-1.3,0.7-1.9,1.2c-0.6,0.6-1.3,0.9-2.1,1
			c-1.8,0-13.1,1.7-13.6,1.8c-0.4,0.1-0.7,0.4-0.6,0.9c0.1,0.4,0.4,0.6,0.7,0.6c0,0,0.1,0,0.1,0c3.3-0.5,12-1.7,13.4-1.7
			c1.1-0.1,2.2-0.6,3-1.4c0.3-0.3,0.6-0.5,1-0.7l14.6,20.7c0.2,0.3,0.7,0.4,1,0.2c0.3-0.2,0.4-0.7,0.2-1l-14.5-20.5
			c3.3-1.7,14-7.8,18.9-11l21.1,30.9c0.2,0.3,0.7,0.4,1,0.2c0.3-0.2,0.4-0.7,0.2-1l-21.1-30.8c0.5-0.3,0.9-0.6,1.3-1
			c1.1-1.3,0.7-4.7,0.4-6.6c2.1,0.5,4.2,0.3,6.1-0.7c0,0,0.1,0,0.1,0l11.4,16.6l11.8,17.2c0.2,0.3,0.7,0.4,1,0.2
			c0.3-0.2,0.4-0.7,0.2-1c0,0,0,0,0,0L211,206.9l-11.4-16.5c6-4.3,26.8-21.3,28.3-23c1.3-0.7,11.8-0.1,15.7,0.1
			c1.7,0.1,3,0.2,3.5,0.2c1.7,0,4.4-1.8,7.8-4.2c1.1-0.8,2.2-1.5,2.9-1.9c2-1.1,8.8-14.9,12.1-21.9c1,0.6,2.3,1.6,2.3,2.8
			c0,0.6,2.4,69.1,3,71.2c0.3,1.1,1.5,1.4,3,1.4c0.8,0,1.6-0.1,2.4-0.2c0,1.1,0.2,2.3,0.4,3.4c0.5,1.3,3.1,4.5,7.3,9.7
			c3.3,4.1,8.3,10.2,8.4,11.3c0,2-0.4,3.9-1.2,5.7c-0.3,0.7-0.6,2.1-1,3.7c-0.6,2.5-1.6,6.6-2.3,7.2c-1.2,1-23.8,10.1-25.7,10.3
			c-0.4,0-3.8,0.3-11.5,1.1c-16.1,1.6-49.8,4.9-51.7,4.5c-0.6-0.3-1.5-3.8-2.1-6.1c-0.5-2.5-1.3-4.9-2.3-7.3c-2-4-8.6-11.6-8.9-11.9
			c-0.3-0.3-0.7-0.4-1.1-0.1c-0.3,0.3-0.4,0.7-0.1,1.1c0,0,0,0,0,0c0.1,0.1,6.7,7.7,8.6,11.6c0.9,2.3,1.7,4.6,2.2,7
			c1,4.2,1.7,6.6,3,7.1c0.4,0.1,0.8,0.1,1.2,0.1c4.1,0,18.5-1.3,51.2-4.5c6.1-0.6,11-1.1,11.4-1.1c1.2,0,25.2-9.2,26.8-10.7
			c0.9-0.9,1.7-3.9,2.7-8c0.4-1.5,0.7-2.9,1-3.6c0.8-2,1.3-4.1,1.3-6.3c0-1.4-2.8-5-8.8-12.3c-3.1-3.8-6.6-8.1-7-9.2
			c-0.2-1-0.4-2.1-0.4-3.2c0.1,0,0.2-0.1,0.4-0.1c0.4-0.1,0.6-0.5,0.5-0.9c-0.1-0.4-0.5-0.6-0.9-0.5l-0.1,0
			c-0.2-5.5-0.1-14.4,0-20.8c0-0.4-0.3-0.8-0.7-0.8c-0.4,0-0.7,0.3-0.8,0.7c0,1.8-0.3,14,0,21.1c-2.1,0.4-3.7,0.3-3.8,0
			c-0.4-2-3-66.7-3-70.8c0-2-1.9-3.4-3.1-4.1c0.8-1.7,1.3-2.7,1.3-2.8c0.8-1.8,0.4-13.4-0.8-32.8l29.8,0.5h0c0.4,0,0.8-0.3,0.8-0.7
			c0-0.4-0.3-0.8-0.7-0.8l-13.2-0.2l14.3-10.2c0.3-0.2,0.4-0.7,0.2-1c-0.2-0.3-0.7-0.4-1-0.2l0,0l-15.5,11c-0.1,0.1-0.2,0.2-0.3,0.4
			l-14.5-0.2c-0.2-3.4-0.3-6-0.3-6.8c0-2.5,2.8-6.8,3.9-8.3c0.1-0.1,0.1-0.3,0.1-0.5c3.3-2.2,7.9-5.3,13.8-9.5
			c4.5-3.1,8.4-5.9,9.5-6.4c3.4-1.9,17.8-24.4,18.7-27.1c1-2.9,1-16.8,1-18.7c2.4-0.4,4.8-0.9,7.2-1.5c3.6-1.4,6.5-13.2,6.8-14.5
			C331.7,7.6,331.6,7.3,331.4,7.1z M187,167.2c-0.8,0.5-1.6,1-2.4,1.4l-6.1-8.8c6.3,0.4,13.1,0.8,16.2,1.1
			C191.3,163.7,188.3,166.2,187,167.2z M168,159.2c2,0.1,5.2,0.3,8.6,0.5c0,0.1,0.1,0.2,0.1,0.2l6.4,9.3c-1.6,0.8-3.5,1.7-5.5,2.6
			C174.1,167.2,170.6,162.5,168,159.2L168,159.2z M191.6,190.2c-1-1.3-6.9-9.1-12.9-17.1c2-0.9,3.8-1.8,5.4-2.5l13.4,19.4
			C195.6,190.8,193.5,190.9,191.6,190.2L191.6,190.2z M315.2,42.1c-0.9,2.8-15.2,24.7-18,26.2c-1.1,0.6-4.8,3.2-9.6,6.5
			c-7.1,4.9-18.9,13.1-20.4,13.4c-0.8,0-3.8-2.3-6.1-4c-3.8-2.9-6.4-4.8-7.8-4.9c-1.9,0-3.9,0.1-5.7,0.5c-3.1,0.5-7,1-8.8,0.5
			c-3.2-1-11.1-10.4-11.1-12.6c0.1-1.3,5.9-8.3,9.8-13c4.9-5.9,7.9-9.6,8.2-10.9c0.4-1.6-0.4-5.5-1.1-8.7l0.1,0.1
			c0.1,0.5,0.5,0.8,2.4,0.8c2.5,0,7.6-0.5,18.2-1.9c3.2-0.4,5.9-0.8,6.5-0.8c2-0.1,3.9-1,5.2-2.5c1.5-0.6,13.9-2.6,23.8-4.2
			c5.7-0.9,11.2-1.8,15.6-2.6C316.1,28.8,316,39.8,315.2,42.1L315.2,42.1z"/>
		<path class="st3" d="M229.5-48.6c-0.8-0.3-1.5-0.5-2.1-0.7c-3.8-1.4-12.2-0.1-12.5,0c-0.4,0.1-0.7,0.5-0.6,0.9
			c0.1,0.4,0.4,0.6,0.8,0.6c0.1,0,8.4-1.3,11.8,0c0.5,0.2,1.2,0.4,2.1,0.7c5,1.8,15.3,5.4,17.8,7.1c1.3,0.9,8.2,6.7,15.4,12.8
			c9,7.6,18.4,15.5,20.6,16.9c1.8,1.3,3.5,2.6,5.2,4.1c2.3,2.1,4.9,4,7.6,5.6c3.4,1.8,13.2,4.3,19.7,6c2,0.5,3.8,1,4.8,1.2
			c1.3,0.4,2.7,0.6,4,0.6c1.4,0,2.8-0.2,4.1-0.6c0.4-0.1,0.6-0.5,0.5-0.9c-0.1-0.4-0.5-0.6-0.9-0.5c-2.4,0.6-4.9,0.6-7.3,0
			c-1-0.3-2.7-0.7-4.8-1.3c-6-1.5-16.1-4.1-19.3-5.8c-2.6-1.6-5.1-3.4-7.3-5.4c-1.7-1.5-3.5-2.9-5.3-4.2
			c-2.1-1.4-11.9-9.6-20.5-16.8c-7.6-6.4-14.1-11.9-15.5-12.9C245-43.1,234.9-46.7,229.5-48.6z"/>
		<path class="st3" d="M204.4-87.3c8.3-2.1,17.6-4.1,19-4.1c0.7,1.5,2.8,10.6,4.5,17.9c3.5,15.4,4.9,20.6,5.8,21.4
			c0.7,0.6,2.5,0.7,4.8,0.7c3.8-0.1,7.7-0.4,11.5-0.9c2.4-0.3,9.2-9,11.2-11.6c0.3-0.3,0.2-0.8-0.1-1.1c-0.3-0.3-0.8-0.2-1.1,0.1
			c-3.9,5.2-8.9,10.9-10.2,11c-5.3,0.8-14,1.3-15,0.5c-0.8-1-3.4-12.3-5.3-20.6c-3.8-16.6-4.4-18.5-5.2-18.9
			c-1.4-0.7-13.2,2.2-20.2,3.9c-0.4,0.1-0.7,0.5-0.6,0.9S204-87.2,204.4-87.3C204.4-87.3,204.4-87.3,204.4-87.3z"/>
		<path class="st3" d="M129.4,43.6c-0.2,0-23.5,1.5-27.9,1c-2.7-0.3-3.4-0.8-4.2-1.5c-0.6-0.5-1.3-0.9-2.1-1.2
			C93,40.8,78.1,15,74.8,8.7C72.3,4,65.1-5.9,64.8-6.4c-0.2-0.3-0.7-0.4-1-0.2s-0.4,0.7-0.2,1C63.6-5.4,71,4.8,73.5,9.4
			c1.2,2.2,18.1,32.6,21.1,33.8c0.6,0.3,1.2,0.6,1.7,1c0.9,0.7,1.9,1.4,5,1.8c0.7,0.1,1.7,0.1,3.1,0.1c7.7,0,24.2-1.1,25.1-1.1
			c0.4,0,0.7-0.4,0.7-0.8S129.8,43.6,129.4,43.6C129.4,43.6,129.4,43.6,129.4,43.6z"/>
	</g>
	<path class="st4" d="M395.2,30.4c-4.4-0.5-9.7-1.4-10.4-1.8c-0.8-0.6-1.6-1.2-2.4-1.7c0.2-0.9,0.9-3.2,1.5-5.6
		c3.4-12,6.7-24.1,6.4-27.3c-0.5-4.7-5.1-18.7-6.6-21.7c-0.7-1.5-8.6-10.4-21.5-24.9c-11.4-12.8-24.3-27.3-25.5-29.6
		c-2.1-3.8-6.9-6.1-8.9-6.9c0.5-1.7-0.1-3.6-1.4-4.8c2.7-4.2,5.2-7.8,5.3-7.8c0.3-0.4,0.2-1-0.2-1.3c-0.4-0.3-1-0.2-1.3,0.2l0,0
		c0,0-2.6,3.7-5.3,7.9c-0.5-0.2-1.1-0.3-1.7-0.3c-2.7,0-4.8,2.1-4.9,4.8c0,1.4,0.6,2.8,1.7,3.7c-1.8,3.4-2,4.7-2,5.4
		c0,0.3,0,0.8,0,1.4c-0.1,7.4,0.1,17.1,1.2,24.4c-1.9,2-12.4,12.9-19.8,20.5c-9.3-8.5-34.9-27.9-36.5-29c-1.5-1-11.6-15.2-11.6-18.7
		v-15c0-0.5-0.4-0.9-0.9-0.9c-0.5,0-0.9,0.4-0.9,0.9c0,0,0,0,0,0v15c0,4.5,10.9,19.2,12.4,20.2c1.7,1.2,27.3,20.7,36.3,28.7
		c-2.9,2.9-5.1,5.1-5.9,5.8c-1.4,1.1-2.9,2-4.4,2.9c-4,2.4-8.1,4.9-8.9,7.6c-0.8,2.7-32.2,46.4-35.9,47.9c-1.6,0.5-4.1,2-7,3.8
		c-3.3,2.1-7.5,4.7-9.3,4.7c-1.3,0-30,3-31.4,7.7c-0.3,1.1-0.7,3-1.1,5.1c-0.8,4.1-2,10.3-3.2,11.5c-1.5,1.5-9.4,6.4-13.3,8.8
		c-0.4-1.3-1.1-2.6-1.8-3.7c-1.9-2.2-16.1-22.8-27.5-39.4c-2.8-4.1-5.5-8-7.7-11.2c0.4-0.9,0.9-1.8,1.2-2.6l0.2-0.4
		c2.2-4.6,4.1-6,8.2-9c2.3-1.7,5.2-3.8,9.1-7.2c6.8-5.9,24.7-12.1,37.7-16.7c10.4-3.6,13.8-4.9,14.5-6c0.8-1.3,1.2-4.4,1.9-9.3
		c0.6-4.2,1.2-8.9,2.2-11.3c2-5.2-11.4-45.1-13-49.6c-0.1-0.5-0.6-0.8-1.1-0.6c-0.5,0.1-0.8,0.6-0.6,1.1c0,0,0,0.1,0,0.1
		c5.7,16.9,14.4,45,13,48.4c-1.1,2.7-1.7,7.3-2.3,11.8c-0.5,3.7-1,7.5-1.6,8.6c-0.7,0.8-7.2,3.1-13.6,5.3
		c-13.2,4.6-31.2,10.9-38.3,17c-3.9,3.3-6.7,5.4-9,7.1c-4.1,3-6.4,4.7-8.8,9.7l-0.2,0.4c-0.2,0.5-0.5,1.1-0.8,1.6
		c-2.5-3.5-4.3-6.1-5-7.2c-2.4-3.3-21.3-18.2-37.9-31.4c-11.4-9-22.2-17.6-23.6-19.2c-2.4-2.7-2.5-12.7-2.6-19.3
		c0-2.5-0.1-4.7-0.2-6.2c-0.3-3.3-2.1-6.8-4-10.5c-1.4-2.6-2.6-5.3-3.6-8.1c-1.9-6.2,0-18.5,0-18.6c0.1-0.5-0.3-0.9-0.8-1
		c-0.5-0.1-0.9,0.3-1,0.7c-0.1,0.5-2,12.8,0,19.4c1,2.9,2.2,5.7,3.7,8.4c1.8,3.6,3.5,6.9,3.8,9.9c0.1,1.4,0.2,3.6,0.2,6.1
		c0.1,7.7,0.2,17.2,3,20.5c1.5,1.7,11.9,9.9,23.9,19.4c5.6,4.4,11.6,9.2,17.2,13.7c-19.9,0.8-48.5,1.3-51.4,0
		C58.1-9,39.2-26.4,30.1-34.7c-3-2.8-5.2-4.8-6.2-5.6c-4.1-3.6-22.1-9-22.8-9.2c-0.5-0.1-1,0.1-1.1,0.6c-0.1,0.5,0.1,1,0.6,1.1
		C0.8-47.8,19-42.3,22.8-39c0.9,0.8,3.2,2.9,6.1,5.6C42.6-20.8,57.4-7.3,60.6-5.9c1.6,0.7,8.5,1,16.9,1c14.4,0,33.4-0.7,37.5-0.9
		c9.3,7.4,16.9,13.8,18.2,15.6c0.8,1.1,2.8,4,5.6,8c-4,8.6-9.8,22-9.8,29c0,2.2-0.2,5.8-0.4,10c-0.6,11.8-1.4,27.9,0.4,34.2
		c2.4,8.2,17.8,65.7,18.5,68.4c0.2,2.8,2,36.5,3.1,55c-20.5,1.4-58.1,3.9-59.2,4c-0.9,0-2.7,1.3-9.8,7c-1.9,1.6-3.7,3-4.8,3.8
		c-2.4,1.7-45.9,11.1-74.5,17.1c-0.5,0.1-0.8,0.6-0.7,1.1c0.1,0.4,0.5,0.7,0.9,0.7c0.1,0,0.1,0,0.2,0c7.4-1.5,72-15,75.2-17.4
		c1.1-0.8,2.9-2.3,4.8-3.9c2.9-2.4,7.7-6.3,8.7-6.6c2.6-0.1,51.6-3.4,59.2-4c0.3,5.7,0.6,9.7,0.6,10.1c0.1,1.5,1.4,1.9,2.3,2.3
		c1.1,0.4,1.7,0.7,1.9,1.8c0.6,3.4,8.3,13.7,12.8,14.2c2.7,0.3,7.1-2.7,11-5.3c1.4-1,2.8-1.9,4.3-2.7c0.6,1.4,1,2.9,1.2,4.4
		c0.5,2.4,1,4.6,1.8,5.7c0.6,0.8,1.6,1.3,2.7,1.2c1.2,0,2.4-0.4,3.5-1c0.4-0.3,0.6-0.8,0.3-1.2c-0.2-0.4-0.8-0.6-1.2-0.3
		c0,0-2.8,1.6-3.8,0.2c-0.6-0.8-1.1-3-1.5-5c-0.6-2.8-1-4.6-1.8-5.4c0-1.4,0.2-5.9,0.3-7.8c2.4-3.1,43.2-29.9,52.1-35.6
		c2.8,3.6,4.9,6.1,5.4,6.8c0.8,3,1.8,8.1,0.7,9.8c-1.2,1.8-22.5,16.2-35.7,24.9c-0.4,0.3-0.5,0.8-0.3,1.2s0.8,0.5,1.2,0.3
		c5.8-3.8,34.6-22.7,36.3-25.4c1.6-2.5,0.2-8.6-0.4-10.7c1.4-0.9,5.2-3.1,6.3-3.6c0.8-0.2,7-0.2,12.5-0.2c13.5,0.1,16.7,0,17.5-0.6
		c1.3-1,1.4-3.5,1.3-5c13.8-0.5,16.3-0.7,16.8-0.9c1.9-0.6,6.2-6.6,6.8-8.6c0.2-1.1,0.3-2.2,0.2-3.4c-0.1-1.2,0-2.3,0.3-3.4
		c0.2-0.3,1.4,0,2,0.2c0.9,0.3,1.8,0.4,2.7,0.2c0.6-0.2,1.2-0.5,5.2-19.3c2-9.4,3.9-19.2,4-21c0.3-3.5-0.6-10.2-3.7-13.5
		c-1.8-1.9-5.6-2-9-2.1c-2.1-0.1-4.6-0.1-5.2-0.7c-1.2-1.3-1.1-4.4-1-7.3c0-0.9,0.1-1.8,0.1-2.7c0.2-5.2,0.8-10.4,1.8-15.5
		c0.6-1.5,13.2-16.1,21.5-25.8c6.2-7.3,11.6-13.6,12.6-15c2.5-3.5,13.7-22,14.2-22.8c0,0,0-0.1,0-0.1l0.3-0.8h0
		c0.3,0,0.5-0.1,0.7-0.3c1.7-2,10-2.4,14.9-2.1c2.5,0.9,4.8,1.8,5.5,2.7c0.2,1.6,0.8,4.6,2.5,5c0.4,0.1,0.9,0.3,1.5,0.5
		c1.2,0.5,2.5,0.8,3.9,1c0.2,0,0.5,0,0.7-0.1c1.1-0.9,2.1-1.9,3-3c3.4,0.9,6.9,1.5,10.5,1.8c0.5,0,0.9-0.4,0.9-0.9
		C395.9,30.9,395.6,30.5,395.2,30.4z M323.1-93.3c0.5,0,1.1,0.1,1.5,0.4c0,0,0,0,0,0c0,0,0.1,0,0.1,0c1.4,0.9,1.8,2.8,0.9,4.2
		c-0.9,1.4-2.8,1.8-4.2,0.9c-1.4-0.9-1.8-2.8-0.9-4.2C321.1-92.7,322.1-93.3,323.1-93.3z M319.6-53.2c0.3,1.7,0.8,3.3,1.5,4.9
		c3.5,8,8.5,22.9,8.9,26.3c0.4,2.5-1.7,18.1-2.7,25.9c-3.5-4.4-10-16.5-10-19c0-2-3-5-8.1-9.7c-2.7-2.6-5.6-5.2-6.6-6.8
		c-0.6-0.8-1.2-1.5-1.9-2.1C307.4-40.5,316.4-49.8,319.6-53.2z M209.8,207.9c-26.3,17.6-26.4,18.6-26.4,19.4
		c-0.1,1.7-0.3,6.1-0.3,7.8c-1.7,0.8-3.2,1.7-4.7,2.9c-3.1,2.1-7.8,5.3-9.8,5c-3.5-0.4-10.8-10.1-11.2-12.8
		c-0.3-1.6-1.5-2.8-3.1-3.2c-0.9-0.3-1.1-0.5-1.1-0.8c-0.2-2-3.8-66.3-3.8-67c0-0.1,0-0.1,0-0.2c-0.2-0.6-16-60.1-18.5-68.5
		c-1.8-6-0.9-22.6-0.4-33.6c0.2-4.2,0.4-7.9,0.4-10.1c0-6.3,5.4-19,9.2-27.2c2.1,3.1,4.5,6.6,7.1,10.3
		c11.5,16.6,25.7,37.3,27.6,39.5c2.1,2.4,7.6,22.9,10.8,36.1c1,4.6,23,48.1,26.1,53.3c2.1,3.5,15.9,21.1,24.4,31.8
		C232.8,192.6,221.3,200.2,209.8,207.9z M279.7,192.9c-1.3,0.4-10.1,0.3-16.5,0.3c-9.6-0.1-12.5,0-13.2,0.3
		c-1.2,0.5-4.9,2.7-6.4,3.6c-0.8-1-2.4-3.1-4.6-5.8c5.2-0.6,24.6-1.3,37.9-1.8l3.4-0.1C280.3,190.9,280.2,192.5,279.7,192.9
		L279.7,192.9z M349.8,26.8c-0.6,1-11.7,19.3-14.1,22.6c-1,1.3-6.3,7.6-12.5,14.8c-14.8,17.2-21.4,25.1-21.8,26.4
		c-1.1,5.3-1.7,10.7-1.9,16.1c0,0.9,0,1.8-0.1,2.7c-0.1,3.5-0.2,6.8,1.5,8.6c1.1,1.2,3.5,1.2,6.5,1.3s6.4,0.2,7.7,1.5
		c2.6,2.8,3.6,8.8,3.3,12.1c-0.3,3.3-6.8,35.2-8.3,38.8c-0.5-0.1-0.9-0.2-1.4-0.3c-1.4-0.4-3.2-0.8-4.1,0.7
		c-0.5,1.4-0.7,2.9-0.6,4.3c0,1,0,1.9-0.2,2.9c-0.5,1.7-4.5,7-5.5,7.4c-0.9,0.2-11.2,0.6-17.3,0.8l-4.2,0.2c-26.5,1-36.3,1.5-39.1,2
		c-8.4-10.6-22.5-28.5-24.6-31.9c-3-5-24.9-48.4-25.9-52.7c-0.6-2.7-5.3-21.6-8.7-31.4c2.6-1.6,12.2-7.4,14-9.2
		c1.5-1.5,2.5-6.3,3.7-12.4c0.4-2.1,0.8-3.9,1.1-4.9c0.9-2.5,24.7-6.4,29.6-6.4c2.3,0,6.3-2.5,10.2-4.9c2.5-1.6,5.2-3.2,6.5-3.6
		c4-1.1,36.2-45.8,37.1-49.1c0.6-2,4.7-4.5,8.1-6.5c1.6-0.9,3.2-1.9,4.6-3.1c0.8-0.7,3.1-3,6-5.9c0.6,0.5,1.2,1.1,1.6,1.8
		c1.1,1.8,3.9,4.4,6.9,7.2c3,2.8,7.5,7,7.5,8.3c0,3.2,8.6,19,11.8,21.7c2.5,2.1,18.2,9.4,25.8,12.9L349.8,26.8z M353,24.1l1.8-3.9
		c1.1,0.5,1.9,0.8,2.3,1c1.5,0.6,2.9,1,4.4,1.5C358.6,22.6,355.7,23.1,353,24.1L353,24.1z M374.1,25.8c-1.6-1.7-5.8-3.1-11.4-4.7
		c-2-0.6-3.9-1.1-5-1.6c-0.6-0.3-1.7-0.7-3-1.4l0,0c-7.1-3.2-22.5-10.4-25.8-12.7c0.5-3.7,3.4-24.4,2.9-27.7
		c-0.5-3.5-5.5-18.5-9.1-26.7c-3.1-7.1-3-24.9-2.9-30.7c0-0.6,0-1,0-1.4c0-0.4,0.3-1.6,1.7-4.5c2,0.7,4.3,0,5.5-1.7
		c1.7,0.7,6.2,2.8,8.1,6.1c1.4,2.5,13.8,16.4,25.8,29.9c9.6,10.9,20.6,23.2,21.2,24.5c1.4,2.9,5.9,16.7,6.4,21.1
		c0.3,3.1-4,18.4-6.3,26.6c-0.8,2.7-1.2,4.2-1.4,5.1c-0.9-0.6-2-0.9-3.1-0.9C376.4,25.3,375.3,25.5,374.1,25.8L374.1,25.8z
		 M380.7,31.8L380.7,31.8c-1.1-0.2-2.2-0.5-3.3-0.9c-0.6-0.2-1.2-0.4-1.6-0.5c-0.3-0.2-0.8-1.5-1.1-3c1-0.3,2-0.4,3.1-0.6
		c0.8-0.1,3.5,1.5,5.1,2.6C382.3,30.3,381.5,31.1,380.7,31.8L380.7,31.8z"/>
</g>
</svg>
