<?xml version="1.0" encoding="utf-8"?>
<!-- Generator: Adobe Illustrator 21.1.0, SVG Export Plug-In . SVG Version: 6.00 Build 0)  -->
<svg version="1.1" id="paths" xmlns="http://www.w3.org/2000/svg" xmlns:xlink="http://www.w3.org/1999/xlink" x="0px" y="0px"
	 viewBox="0 0 322.9 178.1" style="enable-background:new 0 0 322.9 178.1;" xml:space="preserve">
<style type="text/css">
	.st0{fill:#E1854B;}
	.st1{fill:#FFFFFF;}
	.st2{fill:none;stroke:#FFFFFF;stroke-miterlimit:10;}
	.st3{opacity:0.7;fill:#FFFFFF;enable-background:new    ;}
</style>
<rect y="0" class="st0" width="322.9" height="178.1"/>
<title>map</title>
<path class="st1" d="M109.5,26c1.3-1.1,5.6-5.4,7.2-7.1c-0.1-0.2-0.2-0.4-0.3-0.6c-1.5,1.5-6,6.1-7.4,7.2c-1.6,1.3-9.8,15.9-11,18.2
	c0.2,0.1,0.4,0.2,0.6,0.3C101.4,39,108.2,27,109.5,26z"/>
<path class="st1" d="M69.9,1c0.2,0.2,0.3,0.5,0.5,0.7c2,0.1,4.4,0.3,6.6,0.5L78,14.4c0.3,0.4,0.5,0.9,0.8,1.4c0,0,0-0.1,0-0.1
	c0,0,0,0,0,0l-1-13.4c2.8,0.2,5.2,0.5,5.6,0.6c0.1,1.7,0,3.5-0.2,5.2c-0.3,4.2-0.3,4.6,0.2,4.8c0.1,0,8.5,1.7,11.9,1.7
	c0.5,0.1,0.9,0,1.3-0.3c0.5-0.7,0.7-9.6,0.8-13.6l10.1,8.2c-1.1,0.6-2.1,1.2-3.3,1.6c-1.2,0-1.6,6.4-1.6,6.4
	c-0.2,0.9-7.5,11-12.6,18c0.1,0.2,0.3,0.4,0.4,0.6c4.1-5.7,12.8-17.7,12.8-18.6c0-1,0.6-5.2,1-5.8c0.9-0.2,4.8-2.4,7.1-3.7
	c-0.1-0.2-0.2-0.4-0.3-0.6c-1,0.6-2.1,1.2-3,1.7c0-0.1-0.1-0.2-0.1-0.2L97.8,0h-1.1l0.1,0.1c-0.1,5.1-0.4,12.8-0.7,13.8
	c-1.1,0.4-10.6-1.3-12.3-1.7c0-1.4,0-2.7,0.2-4.1c0.3-4.6,0.3-5.5-0.1-5.8c-2-0.4-4.1-0.6-6.1-0.7L77.6,0h-0.7L77,1.5
	C74.2,1.3,71.4,1.1,69.9,1z"/>
<path class="st2" d="M123.3,154.2c0.3-0.5,3.3-5,3.3-6.4c0-0.6-0.2-2.5-0.3-4.6c-0.2-3-0.5-6.3-0.5-7.7c0-1.4,1.4-3,2.6-4.4
	c1-1.1,1.5-1.8,1.5-2.4c0-0.7-0.1-2.4-0.1-3.8c3.6-0.8,6.8-1.5,8-1.8c-0.1-0.2-0.1-0.5-0.2-0.7c-1.2,0.3-4.3,1-7.9,1.7
	c0-0.4-0.1-0.7-0.1-0.9c-0.1-0.7-1.2-1.5-3.1-2.8c-0.9-0.6-1.8-1.3-2.6-2c-0.2-0.3-0.3-0.7-0.4-1l12.2-1.9c-0.1-0.2-0.1-0.5-0.2-0.7
	l-12.3,1.9c-1.7-5.2-5.5-20.6-5.8-22.3c-0.2-0.8,0.2-7.5,0.5-11.9c0.2-2.6,0.3-4.7,0.3-5.3c0-1.6-8-11.7-9.8-13.9
	c-0.4-1.9-7.2-14.2-9.1-17.6c-0.3-0.1-0.6-0.1-0.8-0.2c0,0.1,0,0.2,0,0.2c3.5,6.3,9.1,16.8,9.2,17.7c0,0.4-2,1.6-3.3,2.5
	c-2.6,1.6-4.1,2.6-4.1,3.5c-0.1,2.4-0.4,4.7-0.9,7.1c-0.4,0.5-5.7,3-6.5,3.2c-0.6-0.9-1.1-1.8-1.5-2.8c-1.1-2.2-1.4-2.8-1.8-2.8
	c-0.1,0-8.4,3.5-8.4,4.6c0,0.9,4.5,4.4,5.4,4.4c0.9,0,4-1.7,4.4-2.6c0.2-0.4,0.5-1,0.7-1.4c0.5,1,0.8,1.3,1.2,1.3
	c0.7,0,6.7-2.8,7.2-3.5c0.4-0.7,1-5.9,1-7.4c0-0.6,2.3-2,3.8-3c1.2-0.7,2.3-1.5,3.3-2.4c3.7,4.7,9.3,12,9.3,13.1
	c0,0.6-0.1,2.7-0.3,5.3c-0.4,6.1-0.6,11.3-0.5,12.1c0.2,0.9,4.1,17.1,5.9,22.6c0,0,0,0,0,0.1c0,0,0,0.1,0,0.1
	c0.2,0.6,0.4,1.1,0.6,1.6c0.8,0.8,1.8,1.5,2.8,2.2c1,0.7,2.7,1.9,2.8,2.3c0,0.2,0.1,0.6,0.1,1c-5.2,1.2-11.1,2.4-12.3,2.6
	c-1.1,0.2-3.9-1.3-6.2-2.5c-3.1-1.6-4.6-2.3-5.1-1.7c-0.6,0.7-1.2,1.3-1.9,1.9c-2,1.9-2.9,2.8-2.9,3.4c0.1,1,0.3,2,0.6,3
	c0.4,1.4,0.6,2.9,0.8,4.4c0,0.6-2.5,3.3-4.5,5.1c-0.1-0.1-0.3-0.1-0.5,0c-0.1,0.1-0.1,0.3,0,0.5c-0.6,0.5-1.2,1-1.8,1.5
	c-0.2,0.1-1,0.7-2.5,1.8c-2.8,2-9.3,6.6-10.2,6.7c-1-0.1-1.9-0.3-2.9-0.5c-2.6-0.5-4.3-0.9-5-0.6c-0.5,0.2-1.3,1.4-2.6,3.3
	c-0.9,1.3-2.1,3.3-2.6,3.4c-0.7-0.1-1.4-0.3-2.1-0.5c-2.1-0.6-3.3-0.9-3.5-0.3c-0.3,1.1-0.4,2.2-0.5,3.3c0,0.2,0.1,0.4,0.3,0.4h0
	c0.2,0,0.3-0.1,0.3-0.3c0.1-1,0.2-2.1,0.4-3.1c0.9,0.1,1.8,0.3,2.7,0.6c0.7,0.3,1.5,0.4,2.3,0.5c0.7,0,1.5-1.1,3.1-3.7
	c0.6-1.1,1.4-2.1,2.2-3c0.5-0.2,3,0.3,4.6,0.6c1,0.2,2,0.4,3,0.5c0.9,0,4.5-2.5,10.6-6.8c1.3-0.9,2.3-1.6,2.5-1.7
	c0.7-0.5,1.3-1,1.9-1.6c1.7,1.9,4.2,4.6,4.7,4.7c0.6,0,1.2-0.2,1.8-0.5c1.1-0.4,2.9-1.1,3.4-0.7c1,0.8,38.9,25,40.5,26
	c0.1,0.1,0.2,0.1,0.3,0c0-0.2,0-0.4,0-0.7c-1.2-0.8-14.1-9-25.1-16C123.2,154.3,123.3,154.2,123.3,154.2z M91.3,78.3
	c0,0-0.5,1.1-0.9,1.9c-1.1,1-2.4,1.8-3.8,2.2c-0.6-0.1-4.3-2.9-4.6-3.6c0.7-0.8,6.6-3.6,7.5-3.9c0.5,0.8,0.9,1.5,1.2,2.4
	C91,77.6,91.2,78,91.3,78.3L91.3,78.3z M122.7,154.1c-7.9-5-14.6-9.4-15-9.7c-0.7-0.5-2.2-0.1-4.1,0.6c-0.5,0.2-0.9,0.3-1.4,0.5h0
	c-1.6-1.4-3-2.9-4.4-4.5c2.1-1.9,4.8-4.7,4.8-5.6c-0.2-1.5-0.5-3.1-0.8-4.6c-0.3-1.2-0.5-2.5-0.6-2.8c0.8-1.1,1.7-2,2.7-2.9
	c0.7-0.6,1.3-1.2,1.9-1.9c0.4-0.2,2.7,1,4.3,1.8c2.6,1.3,5.3,2.7,6.6,2.5c1.3-0.2,7-1.4,12.2-2.6c0.1,1.3,0.1,2.9,0.1,3.6
	c-0.3,0.7-0.8,1.4-1.4,1.9c-1.2,1.4-2.7,3.2-2.7,4.8c0,1.5,0.3,4.8,0.5,7.8c0.2,2.2,0.3,4,0.3,4.6c0,0.9-2,4.2-3.2,6.1
	C122.7,153.9,122.7,154,122.7,154.1z"/>
<path class="st1" d="M270.5,138.2c0.8-1.7,1.3-2.7,1.3-2.8c0.8-1.8,0.4-13.4-0.8-32.8l28.6,0.5c0-0.5,0.1-1,0.1-1.5l-12.1-0.2
	l13.4-9.5c0.1-0.4,0.1-0.7,0.2-1.1c0.1-0.2,0.2-0.5,0.5-0.9c-0.2-0.1-0.5,0-0.7,0.1l-15.5,11c-0.1,0.1-0.2,0.2-0.3,0.4l-14.5-0.2
	c-0.2-3.4-0.3-6-0.3-6.8c0-2.5,2.8-6.8,3.9-8.3c0.1-0.1,0.1-0.3,0.1-0.5c3.3-2.2,7.9-5.3,13.8-9.5c4.5-3.1,8.4-5.9,9.5-6.4
	c3.4-1.9,17.8-24.4,18.7-27.1c1-2.9,1-16.8,1-18.7c1.8-0.3,3.5-0.6,5.2-1v-1.5c-3.8,0.8-13.7,2.4-22.6,3.9
	c-21.9,3.5-24.3,4.1-24.7,4.7c-1,1.2-2.5,1.9-4,2c-0.6,0-2.8,0.3-6.6,0.8c-5.7,0.7-17.3,2.2-19.1,1.8l-1.4-2.7
	c-0.3,0.2-0.6,0.4-0.7,0.4c-0.4,0.1-0.8,0.3-1.4,0.6c0.9,3.3,2.3,9,1.9,10.7c-0.3,1-4.5,6.2-7.9,10.3c-6.9,8.3-10.1,12.4-10.1,13.9
	c0,3,8.7,13,12.2,14.1c2.1,0.6,6,0.1,9.4-0.5c1.8-0.3,3.5-0.5,5.3-0.5c1.2,0.1,4.5,2.6,7.1,4.7c3.7,2.8,5.8,4.3,7,4.3
	c0.6,0,2-0.8,4.6-2.4c-1.2,2-2.7,4.9-2.7,7c0,0.8,0.1,3.5,0.4,7.1c-0.1,0.1-0.1,0.2-0.1,0.4c0,0.2,0.1,0.3,0.2,0.4l0,0.2
	c0.6,9.9,1.7,30.4,0.9,32.3c-0.4,0.8-0.8,1.8-1.3,2.8c-0.4,0-0.7,0.3-0.8,0.7c0,0.2,0.1,0.4,0.2,0.5c-3.9,8.2-10.1,20.6-11.5,21.4
	c-0.7,0.4-1.8,1.1-3,2c-2.2,1.6-5.6,3.9-6.9,3.9c-0.5,0-1.8-0.1-3.4-0.2c-12.2-0.6-16.1-0.5-16.9,0.4c-0.2,0.2-1.9,1.7-4.4,3.8
	c0.3,0.4,0.6,0.8,0.9,1.2c2.5-2.1,4.2-3.6,4.6-4.1c1.3-0.7,11.8-0.1,15.7,0.1c1.7,0.1,3,0.2,3.5,0.2c1.7,0,4.4-1.8,7.8-4.2
	c1.1-0.8,2.2-1.5,2.9-1.9c2-1.1,8.8-14.9,12.1-21.9c1,0.6,2.3,1.6,2.3,2.8c0,0.3,0.6,18.1,1.3,35.8h1.5c-0.7-16.8-1.3-33.8-1.3-35.8
	C273.7,140.3,271.8,138.9,270.5,138.2z M267.2,88.2c-0.8,0-3.8-2.3-6.1-4c-3.8-2.9-6.4-4.8-7.8-4.9c-1.9,0-3.9,0.1-5.7,0.5
	c-3.1,0.5-7,1-8.8,0.5c-3.2-1-11.1-10.4-11.1-12.6c0.1-1.3,5.9-8.3,9.8-13c4.9-5.9,7.9-9.6,8.2-10.9c0.4-1.6-0.4-5.5-1.1-8.7
	l0.1,0.1c0.1,0.5,0.5,0.8,2.4,0.8c2.5,0,7.6-0.5,18.2-1.9c3.2-0.4,5.9-0.8,6.5-0.8c2-0.1,3.9-1,5.2-2.5c1.5-0.6,13.9-2.6,23.8-4.2
	c5.7-0.9,11.2-1.8,15.6-2.6c0,4.6-0.2,15.7-1,18v0c-0.9,2.8-15.2,24.7-18,26.2c-1.1,0.6-4.8,3.2-9.6,6.5
	C280.5,79.8,268.7,88,267.2,88.2z"/>
<path class="st1" d="M301.7,102.3c0-0.1,0-0.2-0.1-0.3c0,0.2,0,0.5-0.1,0.7C301.6,102.6,301.7,102.5,301.7,102.3z"/>
<path class="st1" d="M221,171.4c-2.4,2-5.3,4.4-8.2,6.8h2.4c2.4-2,4.8-3.9,6.8-5.6C221.6,172.2,221.3,171.8,221,171.4z"/>
<path class="st1" d="M242.3,30.3c-0.3,0.1-0.5,0.4-0.5,0.7c0.5-0.2,0.9-0.4,1.3-0.5C242.9,30.3,242.6,30.2,242.3,30.3z"/>
<path class="st1" d="M147.9,168.4c0,0.2,0,0.4,0.1,0.6c0-0.3,0-0.5,0-0.8C148,168.3,147.9,168.4,147.9,168.4z"/>
<path class="st1" d="M267.3,0h-1.9c0.4,0.3,0.8,0.7,1.2,1C266.8,0.6,267,0.3,267.3,0z"/>
<path class="st1" d="M268.8,0.9c-0.3,0.4-0.6,0.8-0.9,1.2c5.4,4.5,9.1,7.3,10.4,7.7c4.8,1.5,37.4,1.6,44.5,1.6V9.9
	c-14.7,0-40.2-0.3-44.1-1.5C277.7,8,273.9,5.1,268.8,0.9z"/>
<path class="st1" d="M111.4,7.5c1.8,4,3.4,7.6,4,8.9c0.2,0.5,0.5,1.1,0.9,1.8c0.1,0.2,0.2,0.4,0.3,0.6c3.4,6.2,10.7,18.6,13.1,22.4
	c0.2-0.7,0.3-1.3,0.5-2c-3.4-5.6-11.6-19.4-13.5-23.5c-1.7-3.5-4.7-10.3-7-15.8h-1.6c0.9,2.2,2,4.6,3,6.9
	C111.2,7.1,111.3,7.3,111.4,7.5z"/>
<path class="st1" d="M320,6.5c0.9,0.3,1.9,0.4,2.9,0.5V5.5c-0.8-0.1-1.7-0.2-2.5-0.4c-1-0.3-2.7-0.7-4.8-1.3c-4-1-9.7-2.5-14-3.8
	H297c4.2,1.7,12.5,3.8,18.2,5.3C317.2,5.8,319,6.3,320,6.5z"/>
<path class="st1" d="M94.6,43.3c0.6,0.3,1.2,0.6,1.7,1c0.6,0.4,1.2,0.9,2.2,1.2c0.2,0.1,0.5,0.2,0.8,0.2c0.5,0.1,1.2,0.2,1.9,0.3
	c0.7,0.1,1.7,0.1,3.1,0.1c7.2,0,22.2-0.9,24.7-1.1c0.1-0.5,0.1-1,0.2-1.5c-0.7,0-23.5,1.5-27.8,1c-1.4-0.2-2.2-0.4-2.9-0.6
	c-0.2-0.1-0.4-0.2-0.6-0.3c-0.3-0.2-0.5-0.3-0.8-0.5c-0.6-0.5-1.3-0.9-2.1-1.2c-0.7-0.3-2.4-2.8-4.7-6.3c-0.1-0.2-0.3-0.4-0.4-0.6
	c-3.5-5.5-8-13.3-11.4-19.1c-0.3-0.5-0.5-0.9-0.8-1.4c-1.4-2.4-2.5-4.4-3.1-5.7c-1-1.8-2.7-4.5-4.4-7c-0.2-0.2-0.3-0.5-0.5-0.7
	c-0.2-0.3-0.5-0.7-0.7-1h-1.8c2.2,3.2,4.8,7,6,9.4C74.6,11.6,91.6,42.1,94.6,43.3z"/>
<path class="st3" d="M306.2,173.1c0.2-0.3,1.4,0,2,0.2c0.9,0.3,1.8,0.4,2.7,0.2c0.6-0.2,1.2-0.5,5.2-19.3c2-9.4,3.9-19.2,4-21
	c0.3-3.5-0.6-10.2-3.7-13.5c-1.8-1.9-5.6-2-9-2.1c-2.1,0-4.6-0.1-5.2-0.7c-1.2-1.3-1.1-4.4-1-7.3c0-0.9,0.1-1.8,0.1-2.7
	c0-1.4,0.1-2.7,0.2-4.1c-0.1,0.2-0.4,0.4-0.6,0.3h0l-1.2,0c-0.1,1.3-0.2,2.5-0.2,3.8c0,0.9,0,1.8-0.1,2.7c-0.1,3.5-0.2,6.8,1.5,8.6
	c1.1,1.2,3.5,1.2,6.5,1.3c3,0.1,6.4,0.2,7.7,1.5c2.6,2.8,3.6,8.8,3.3,12.1c-0.3,3.3-6.8,35.2-8.3,38.8c-0.5-0.1-0.9-0.2-1.4-0.3
	c-1.4-0.4-3.2-0.8-4.1,0.7c-0.5,1.4-0.7,2.9-0.6,4.3c0,0.5,0,1.1,0,1.6h1.8c0-0.5,0-1.1,0-1.6C305.7,175.4,305.9,174.2,306.2,173.1z
	"/>
<path class="st3" d="M129.8,41.3c-0.2,0.8-0.4,1.6-0.5,2.3c0,0,0,0,0,0c0,0,0,0,0.1,0c0.4,0,0.8,0.3,0.8,0.7c0,0.4-0.3,0.8-0.7,0.8
	c-0.1,0-0.2,0-0.3,0c-0.1,0.6-0.1,1.2-0.1,1.7c0,2.2-0.2,5.8-0.4,10c-0.6,11.8-1.4,27.9,0.4,34.2c0.9,3,3.5,12.6,6.5,23.7l0.4-0.1
	c0.2,0,0.3,0.1,0.4,0.3c0,0.2-0.1,0.4-0.3,0.4l-0.4,0.1c0.6,2.2,1.2,4.5,1.8,6.9c0.3-0.1,0.5-0.1,0.5-0.1c0.2,0,0.4,0.1,0.4,0.3
	c0,0,0,0,0,0c0,0.2-0.1,0.4-0.3,0.4c-0.1,0-0.2,0.1-0.5,0.1c4.6,17.2,9.4,35,9.8,36.4c0,0.8,0.2,4.1,0.5,8.8
	c0.1-0.3,0.5-0.5,0.8-0.4c0,0,0.4,0.1,1,0.2c-0.3-5.2-0.5-8.6-0.5-8.8c0-0.1,0-0.1,0-0.2c0-0.1-0.2-0.8-0.5-2c-0.6-0.2-1-0.3-1-0.3
	c-0.4-0.1-0.6-0.5-0.5-0.9c0.1-0.4,0.5-0.6,0.9-0.5c0,0,0.1,0,0.2,0.1c-3.5-13.2-15.4-57.7-17.5-64.8c-1.8-6-0.9-22.6-0.4-33.6
	c0.2-4.2,0.4-7.9,0.4-10.1c0-0.9,0.1-2,0.3-3.2c-0.4-0.7-0.6-1.2-0.6-1.2C130.4,42.3,130.2,41.9,129.8,41.3z"/>
<path class="st3" d="M221.9,172.6c1.4,1.8,2.9,3.7,4.3,5.6h2.3c-1.8-2.3-3.6-4.6-5.3-6.7C222.9,171.8,222.4,172.2,221.9,172.6z"/>
<path class="st3" d="M133.2,9.9c0.8,1.1,2.8,4,5.6,8c-2.8,6.1-6.5,14.5-8.4,21.4c0.6,1,1.1,1.8,1.3,2.1c1.6-6.7,5.5-15.5,8.3-21.8
	c2.1,3.1,4.5,6.6,7.1,10.3c11.5,16.6,25.7,37.3,27.6,39.5c0.4,0.5,0.9,1.5,1.5,3.1c0.3-0.2,0.7-0.2,1,0.1c0.3,0.3,0.3,0.8-0.1,1.1
	c0,0-0.2,0.2-0.4,0.4c2.6,7.3,6.3,21.5,8.8,31.5c0.8,3.6,14.2,30.6,21.6,44.9c0.3-0.3,0.5-0.4,0.5-0.4c0.3-0.3,0.8-0.2,1.1,0.1
	c0.3,0.3,0.2,0.8-0.1,1.1c-0.1,0.1-0.4,0.3-0.8,0.7c1.8,3.4,3.1,6,3.8,7c0.2,0.3,0.4,0.6,0.7,1c1,0,1.6,0,1.6,0
	c0.4,0,0.8,0.3,0.8,0.8c0,0.4-0.3,0.8-0.8,0.8c-0.1,0-0.2,0-0.5,0c1.7,2.4,4.5,6,7.6,10c0.5-0.4,0.9-0.8,1.4-1.2
	c-4.5-5.8-8.2-10.7-9.2-12.3c-3-5-24.9-48.4-25.9-52.7c-0.6-2.7-5.3-21.6-8.7-31.4c2.6-1.6,12.2-7.4,14-9.2
	c1.5-1.5,2.5-6.3,3.7-12.4c0.4-2.1,0.8-3.9,1.1-4.9c0.9-2.5,24.7-6.4,29.6-6.4c2.3,0,6.3-2.5,10.2-4.9c1.9-1.2,3.8-2.3,5.2-3
	c-0.2-0.6-0.3-1.1-0.4-1.6c0-0.1,0-0.2,0-0.2c-1.5,0.7-3.5,1.9-5.7,3.3c-3.3,2.1-7.5,4.7-9.3,4.7c-1.3,0-30,3-31.4,7.7
	c-0.3,1.1-0.7,3-1.1,5.1c-0.8,4.1-2,10.3-3.2,11.5c-1.5,1.5-9.4,6.4-13.3,8.8c-0.4-1.3-1.1-2.6-1.8-3.7
	c-1.9-2.2-16.1-22.8-27.5-39.4c-2.8-4.1-5.5-8-7.7-11.2c0.4-0.9,0.8-1.8,1.2-2.6l0.2-0.4c2.2-4.6,4.1-6,8.2-9
	c1.9-1.4,4.3-3.1,7.3-5.7h-2.8c-2.2,1.8-4,3.1-5.5,4.2c-4.1,3-6.4,4.7-8.8,9.7l-0.2,0.4c-0.2,0.5-0.5,1.1-0.8,1.6
	c-2.5-3.5-4.3-6.1-5-7.2c-1-1.3-4.6-4.6-9.7-8.8h-2.8C127.9,4.8,132.2,8.5,133.2,9.9z"/>
<path class="st3" d="M302.3,90.1c0.2,0.3,0.2,0.8-0.2,1l-0.9,0.6c-0.6,3.2-1.1,6.5-1.4,9.7l1.1,0c0.3,0,0.6,0.2,0.7,0.4
	c0.3-3.6,0.8-7.2,1.5-10.7c0.6-1.4,11.6-14.3,19.8-23.9v-2.8c-12.6,14.7-19.2,22.6-21,25.2C302,89.9,302.2,90,302.3,90.1z"/>
<path class="st3" d="M322.9,0h-0.3c0.1,0.2,0.2,0.3,0.3,0.5V0z"/>
<path class="st3" d="M269.5,0h-1.7c0.4,0.3,0.7,0.6,1.1,0.9C269.1,0.6,269.3,0.3,269.5,0z"/>
<path class="st3" d="M148.5,169.3c-0.2,0-0.4-0.2-0.5-0.3c0,0.4,0,0.9,0.1,1.3c0,0,0.1,0.1,0.1,0.1c0.2,0.1,0.2,0.3,0.1,0.5
	c0,0.1-0.1,0.1-0.2,0.1c0.1,2.2,0.3,4.6,0.4,7.1h1.8c-0.2-3.1-0.3-6-0.5-8.6C149.1,169.4,148.6,169.3,148.5,169.3z"/>
<path class="st3" d="M268,2.1c-0.5-0.4-0.9-0.8-1.4-1.2c-9.5,13.2-21.3,28.6-23.4,29.5c0,0,0,0,0,0c0.1,0.1,0.1,0.2,0.2,0.3l0.1,0.2
	c0.3-0.1,0.7,0.1,0.8,0.4l0.2,0.4C247.9,29,259,14.6,268,2.1z"/>
<path class="st1" d="M138.2,122.9c0.2,0,0.3-0.2,0.3-0.4c0,0,0,0,0,0c0-0.2-0.2-0.3-0.4-0.3c0,0-0.2,0-0.5,0.1
	c0.1,0.2,0.1,0.5,0.2,0.7C138,123,138.2,122.9,138.2,122.9z"/>
<path class="st3" d="M138.2,122.9c0.2,0,0.3-0.2,0.3-0.4c0,0,0,0,0,0c0-0.2-0.2-0.3-0.4-0.3c0,0-0.2,0-0.5,0.1
	c0.1,0.2,0.1,0.5,0.2,0.7C138,123,138.2,122.9,138.2,122.9z"/>
<path class="st1" d="M136.1,115.4c0.2,0,0.3-0.2,0.3-0.4c0-0.2-0.2-0.3-0.4-0.3l-0.4,0.1c0.1,0.2,0.1,0.5,0.2,0.7L136.1,115.4z"/>
<path class="st3" d="M136.1,115.4c0.2,0,0.3-0.2,0.3-0.4c0-0.2-0.2-0.3-0.4-0.3l-0.4,0.1c0.1,0.2,0.1,0.5,0.2,0.7L136.1,115.4z"/>
<path class="st1" d="M148.3,170.9c0.1-0.2,0.1-0.4-0.1-0.5c0,0,0,0-0.1-0.1c0,0.2,0,0.4,0,0.7C148.2,171,148.3,171,148.3,170.9z"/>
<path class="st3" d="M148.3,170.9c0.1-0.2,0.1-0.4-0.1-0.5c0,0,0,0-0.1-0.1c0,0.2,0,0.4,0,0.7C148.2,171,148.3,171,148.3,170.9z"/>
<path class="st1" d="M129.8,41.3c0.4,0.6,0.6,1,0.7,1.2c0,0,0.3,0.5,0.6,1.2c0.1-0.7,0.3-1.4,0.5-2.2c-0.2-0.4-0.7-1.1-1.3-2.1
	C130.1,39.9,130,40.6,129.8,41.3z"/>
<path class="st3" d="M129.8,41.3c0.4,0.6,0.6,1,0.7,1.2c0,0,0.3,0.5,0.6,1.2c0.1-0.7,0.3-1.4,0.5-2.2c-0.2-0.4-0.7-1.1-1.3-2.1
	C130.1,39.9,130,40.6,129.8,41.3z"/>
<path class="st1" d="M268,2.1c0.3-0.4,0.6-0.8,0.9-1.2c-0.4-0.3-0.7-0.6-1.1-0.9h-0.5c-0.2,0.3-0.5,0.6-0.7,1
	C267,1.4,267.5,1.8,268,2.1z"/>
<path class="st3" d="M268,2.1c0.3-0.4,0.6-0.8,0.9-1.2c-0.4-0.3-0.7-0.6-1.1-0.9h-0.5c-0.2,0.3-0.5,0.6-0.7,1
	C267,1.4,267.5,1.8,268,2.1z"/>
<path class="st1" d="M147.2,155.9c-0.1,0.4,0.1,0.8,0.5,0.9c0.1,0,0.5,0.1,1,0.3c-0.1-0.5-0.3-1-0.4-1.7c-0.1,0-0.2,0-0.2-0.1
	C147.7,155.3,147.3,155.5,147.2,155.9z"/>
<path class="st3" d="M147.2,155.9c-0.1,0.4,0.1,0.8,0.5,0.9c0.1,0,0.5,0.1,1,0.3c-0.1-0.5-0.3-1-0.4-1.7c-0.1,0-0.2,0-0.2-0.1
	C147.7,155.3,147.3,155.5,147.2,155.9z"/>
<path class="st1" d="M214.7,160.6c0-0.4-0.3-0.8-0.8-0.8c0,0-0.6,0-1.6,0c0.3,0.4,0.6,0.9,1.1,1.5c0.3,0,0.5,0,0.5,0
	C214.3,161.3,214.7,161,214.7,160.6z"/>
<path class="st3" d="M214.7,160.6c0-0.4-0.3-0.8-0.8-0.8c0,0-0.6,0-1.6,0c0.3,0.4,0.6,0.9,1.1,1.5c0.3,0,0.5,0,0.5,0
	C214.3,161.3,214.7,161,214.7,160.6z"/>
<path class="st1" d="M208.7,150.1c-0.3-0.3-0.7-0.4-1.1-0.1c0,0-0.2,0.2-0.5,0.4c0.2,0.5,0.5,0.9,0.7,1.4c0.4-0.4,0.7-0.6,0.8-0.7
	C209,150.9,209,150.4,208.7,150.1z"/>
<path class="st3" d="M208.7,150.1c-0.3-0.3-0.7-0.4-1.1-0.1c0,0-0.2,0.2-0.5,0.4c0.2,0.5,0.5,0.9,0.7,1.4c0.4-0.4,0.7-0.6,0.8-0.7
	C209,150.9,209,150.4,208.7,150.1z"/>
<path class="st1" d="M148,168.2c0,0.2,0,0.5,0,0.8c0.1,0.2,0.3,0.3,0.5,0.3c0.1,0,0.6,0.1,1.4,0.3c0-0.5-0.1-1-0.1-1.5
	c-0.6-0.1-1-0.2-1-0.2C148.5,167.8,148.1,168,148,168.2z"/>
<path class="st3" d="M148,168.2c0,0.2,0,0.5,0,0.8c0.1,0.2,0.3,0.3,0.5,0.3c0.1,0,0.6,0.1,1.4,0.3c0-0.5-0.1-1-0.1-1.5
	c-0.6-0.1-1-0.2-1-0.2C148.5,167.8,148.1,168,148,168.2z"/>
<path class="st1" d="M177.2,72.6c-0.3-0.3-0.7-0.3-1-0.1c0.2,0.5,0.4,1,0.5,1.5c0.2-0.2,0.4-0.3,0.4-0.4
	C177.5,73.4,177.5,72.9,177.2,72.6z"/>
<path class="st3" d="M177.2,72.6c-0.3-0.3-0.7-0.3-1-0.1c0.2,0.5,0.4,1,0.5,1.5c0.2-0.2,0.4-0.3,0.4-0.4
	C177.5,73.4,177.5,72.9,177.2,72.6z"/>
<path class="st1" d="M243.3,31l-0.1-0.2c0-0.1-0.1-0.2-0.2-0.3c-0.4,0.1-0.8,0.3-1.3,0.5c0,0.1,0,0.1,0,0.2c0.1,0.4,0.3,1,0.4,1.6
	c0.5-0.3,1-0.5,1.4-0.6c0.2-0.1,0.4-0.2,0.7-0.4l-0.2-0.4C244,31.1,243.7,30.9,243.3,31z"/>
<path class="st3" d="M243.3,31l-0.1-0.2c0-0.1-0.1-0.2-0.2-0.3c-0.4,0.1-0.8,0.3-1.3,0.5c0,0.1,0,0.1,0,0.2c0.1,0.4,0.3,1,0.4,1.6
	c0.5-0.3,1-0.5,1.4-0.6c0.2-0.1,0.4-0.2,0.7-0.4l-0.2-0.4C244,31.1,243.7,30.9,243.3,31z"/>
<path class="st1" d="M221.9,172.6c0.5-0.4,0.9-0.8,1.4-1.2c-0.3-0.4-0.6-0.8-0.9-1.2c-0.4,0.4-0.9,0.8-1.4,1.2
	C221.3,171.8,221.6,172.2,221.9,172.6z"/>
<path class="st3" d="M221.9,172.6c0.5-0.4,0.9-0.8,1.4-1.2c-0.3-0.4-0.6-0.8-0.9-1.2c-0.4,0.4-0.9,0.8-1.4,1.2
	C221.3,171.8,221.6,172.2,221.9,172.6z"/>
<path class="st1" d="M300.9,101.6l-1.1,0c0,0.5-0.1,1-0.1,1.5l1.2,0h0c0.3,0,0.5-0.1,0.6-0.3c0-0.2,0-0.5,0.1-0.7
	C301.5,101.8,301.2,101.6,300.9,101.6z"/>
<path class="st3" d="M300.9,101.6l-1.1,0c0,0.5-0.1,1-0.1,1.5l1.2,0h0c0.3,0,0.5-0.1,0.6-0.3c0-0.2,0-0.5,0.1-0.7
	C301.5,101.8,301.2,101.6,300.9,101.6z"/>
<path class="st1" d="M302.3,90.1c-0.1-0.1-0.2-0.2-0.4-0.3c-0.3,0.4-0.4,0.7-0.5,0.9c-0.1,0.4-0.1,0.7-0.2,1.1l0.9-0.6
	C302.4,90.9,302.5,90.5,302.3,90.1z"/>
<path class="st3" d="M302.3,90.1c-0.1-0.1-0.2-0.2-0.4-0.3c-0.3,0.4-0.4,0.7-0.5,0.9c-0.1,0.4-0.1,0.7-0.2,1.1l0.9-0.6
	C302.4,90.9,302.5,90.5,302.3,90.1z"/>
<path class="st1" d="M130.2,44.3c0-0.4-0.4-0.7-0.8-0.7c0,0,0,0-0.1,0c0,0,0,0,0,0c-0.1,0.5-0.2,1-0.2,1.5c0.2,0,0.3,0,0.3,0
	C129.9,45.1,130.2,44.7,130.2,44.3z"/>
<path class="st3" d="M130.2,44.3c0-0.4-0.4-0.7-0.8-0.7c0,0,0,0-0.1,0c0,0,0,0,0,0c-0.1,0.5-0.2,1-0.2,1.5c0.2,0,0.3,0,0.3,0
	C129.9,45.1,130.2,44.7,130.2,44.3z"/>
<path class="st1" d="M196.8,161.1c3.1,0.2,14,0.2,16.5,0.2c-0.4-0.6-0.8-1.1-1.1-1.5c-3.1,0-10.1,0-13.8-0.1
	c3.9-3.3,7.7-6.5,9.3-7.9c-0.2-0.4-0.5-0.9-0.7-1.4c-1.5,1.3-6.2,5.3-10.8,9.1c-2.6-0.3-24.2-1.6-29.6-1.9c-1-1.3-1.8-2.2-2.1-2.6
	c-2.3-2.5-8.3-19.8-8.8-25.3c-0.5-5.6,2.3-30.1,3.2-32.7c1.1-3,5.8-12.6,7-13.7c1.3-1.1,8.8-7.8,10.6-9.4c-0.2-0.5-0.4-1-0.5-1.5
	c0,0,0,0-0.1,0c-0.1,0.1-9.5,8.5-11,9.7c-1.3,1.1-4.4,7.4-6.3,11.4c-1.6-3.1-15.5-29.7-17.3-33.7c-2-4.2-9.5-17.7-9.8-18.3
	c0,0-0.1-0.1-0.2-0.3c-0.2,0.8-0.3,1.5-0.5,2.2c1.9,3.5,7.5,13.6,9.1,17c2,4.2,16.9,32.8,17.5,34c0.1,0.2,0.3,0.4,0.6,0.4
	c-0.3,0.6-0.5,1.1-0.6,1.5c-1.1,3.1-3.8,27.9-3.3,33.3c0.5,5.5,6.5,23.2,9.2,26.2c0.2,0.3,0.7,0.8,1.2,1.5h-6.4
	c-2.4,0-9-1.8-10.1-2.2c0.2,0.6,0.3,1.2,0.4,1.7c2.2,0.6,7.4,2,9.7,2h7.2l0.4,0c2.1,2.7,5.3,6.9,8.7,11.3c-1.7,0.2-7.1,0.8-9.7,0.4
	c-2.7-0.4-12.1-2.2-15.2-2.8c0,0.5,0.1,1,0.1,1.5c3.4,0.7,12.3,2.3,14.9,2.7c0.8,0.1,1.6,0.2,2.5,0.1c2.8-0.1,5.5-0.3,8.3-0.6
	c0.1,0,0.2,0,0.2-0.1l0.6,0.8l-1.2,0.5c-4.2,1.9-8.3,3.7-10.5,5.1h3.2c2.2-1.1,5.1-2.4,8-3.7l1.5-0.7c1.1,1.5,2.2,3,3.3,4.4h1.9
	c-1.2-1.6-2.5-3.3-3.8-5c2-0.9,3.8-1.8,5.4-2.5l5.2,7.6h1.8l-5.7-8.3c0.8-0.4,1.6-0.9,2.4-1.4C189.4,167.3,193,164.3,196.8,161.1z
	 M177.8,171.9c-3.6-4.8-7.2-9.4-9.7-12.7h0c2,0.1,5.2,0.3,8.6,0.5c0,0.1,0.1,0.2,0.1,0.2l6.4,9.3C181.6,170.1,179.7,171,177.8,171.9
	z M184.6,168.6l-6.1-8.8c6.3,0.4,13.1,0.8,16.2,1.1c-3.4,2.8-6.4,5.3-7.7,6.3C186.2,167.8,185.4,168.2,184.6,168.6z"/>
</svg>
