<svg xmlns="http://www.w3.org/2000/svg" viewBox="0 0 33.77 44.05"><defs><style>.cls-1{fill:#e1854b;}.cls-2{fill:#f05348;}</style></defs><title>poppi_logo_2</title><g id="Layer_2" data-name="Layer 2"><g id="Layer_1-2" data-name="Layer 1"><path class="cls-1" d="M15.34,17.08l-2.69-1.46a4.61,4.61,0,0,0,2.88.49l2.69,1.46A4.61,4.61,0,0,1,15.34,17.08Z"/><path class="cls-1" d="M18.43,5l2.69,1.46A5,5,0,0,1,23.62,11a6.68,6.68,0,0,1-5.4,6.57l-2.69-1.46a6.68,6.68,0,0,0,5.4-6.57A5,5,0,0,0,18.43,5Z"/><path class="cls-1" d="M20.64,1l2.69,1.46a8.15,8.15,0,0,0-5.08-.87L15.56.09A8.15,8.15,0,0,1,20.64,1Z"/><path class="cls-2" d="M18.25,1.55c5.25-.74,9.5,3.25,9.49,8.92,0,5.31-5,11-7.76,13.68a3.21,3.21,0,0,1-1.79.92,2.47,2.47,0,0,1-1.77-.4c-2.75-1.9-7.71-6.06-7.7-11.53C8.73,7.48,13,2.29,18.25,1.55Zm0,16A6.68,6.68,0,0,0,23.62,11c0-3.21-2.4-5.47-5.38-5.06a6.68,6.68,0,0,0-5.39,6.57c0,3.21,2.4,5.47,5.37,5.05"/><path class="cls-1" d="M16.63,24.8l-2.69-1.46-.22-.13C11,21.31,6,17.14,6,11.68,6,6,10.31.83,15.56.09l2.69,1.46C13,2.29,8.73,7.48,8.72,13.14c0,5.46,4.94,9.63,7.7,11.53Z"/><path d="M6.52,34c0,1.87-1.46,3.34-3.88,3.34a7.65,7.65,0,0,1-1.57-.17v4a5.32,5.32,0,0,1-1.08,0V31.53a12.8,12.8,0,0,1,2.55-.26C5.17,31.27,6.52,32.25,6.52,34Zm-1.08.1c0-1.26-1-1.87-2.8-1.87a9.08,9.08,0,0,0-1.56.14v3.77a5.82,5.82,0,0,0,1.53.21C4.39,36.39,5.45,35.47,5.45,34.13Z"/><path d="M7.66,38.06A3.44,3.44,0,0,1,11,34.39a3,3,0,0,1,3,3.27,3.44,3.44,0,0,1-3.32,3.67A3,3,0,0,1,7.66,38.06Zm5.28-.27a2.19,2.19,0,0,0-2.08-2.45,2.34,2.34,0,0,0-2.17,2.59,2.2,2.2,0,0,0,2.08,2.45A2.34,2.34,0,0,0,12.94,37.79Z"/><path d="M22.14,37.47a3.7,3.7,0,0,1-3.84,3.87,5.31,5.31,0,0,1-1.08-.11V42c0,1.12,0,1.8.06,2a5.8,5.8,0,0,1-1,.07c0-.16,0-.83,0-2.07V37.09a14.39,14.39,0,0,0-.2-2.4,3.92,3.92,0,0,1,.86-.24,9.88,9.88,0,0,1,.3,1.82,2.63,2.63,0,0,1,2.46-1.87C21.15,34.39,22.14,35.68,22.14,37.47Zm-1,.12c0-1.31-.67-2.27-1.72-2.27s-2.19,1.14-2.19,2.84v2a3.26,3.26,0,0,0,1.26.26A2.63,2.63,0,0,0,21.13,37.59Z"/><path d="M30.33,37.47a3.7,3.7,0,0,1-3.84,3.87,5.31,5.31,0,0,1-1.08-.11V42c0,1.12,0,1.8.06,2a5.8,5.8,0,0,1-1,.07c0-.16,0-.83,0-2.07V37.09a14.39,14.39,0,0,0-.2-2.4,3.92,3.92,0,0,1,.86-.24,9.88,9.88,0,0,1,.3,1.82,2.63,2.63,0,0,1,2.46-1.87C29.34,34.39,30.33,35.68,30.33,37.47Zm-1,.12c0-1.31-.67-2.27-1.72-2.27s-2.19,1.14-2.19,2.84v2a3.26,3.26,0,0,0,1.26.26A2.63,2.63,0,0,0,29.32,37.59Z"/><path d="M32.4,32.14a.69.69,0,0,1,1.38,0,.69.69,0,0,1-.7.7A.67.67,0,0,1,32.4,32.14Zm1.21,9a5.07,5.07,0,0,1-1,0c0-.23,0-.94,0-2V34.7a6.78,6.78,0,0,1,1-.28v4.75C33.58,40.18,33.6,40.9,33.61,41.16Z"/></g></g></svg>