<svg xmlns="http://www.w3.org/2000/svg" xmlns:xlink="http://www.w3.org/1999/xlink" viewBox="0 0 165.11 192.33"><defs><style>.cls-1{fill:url(#linear-gradient);}.cls-2{fill:url(#linear-gradient-2);}.cls-3{fill:url(#linear-gradient-3);}.cls-4{fill:url(#linear-gradient-4);}.cls-5{fill:url(#linear-gradient-5);}.cls-6,.cls-7,.cls-9{fill:#fff;}.cls-6{opacity:0.1;}.cls-7{opacity:0.7;}.cls-8{fill:#212121;}.cls-10{opacity:0.4;}</style><linearGradient id="linear-gradient" x1="12.93" y1="98.28" x2="0.17" y2="101.29" gradientTransform="translate(23.04 3.63) rotate(13.24)" gradientUnits="userSpaceOnUse"><stop offset="0" stop-color="#ef3e36"/><stop offset="1" stop-color="#e1854b"/></linearGradient><linearGradient id="linear-gradient-2" x1="-150.54" y1="124.42" x2="-137.78" y2="121.42" gradientTransform="matrix(-0.97, 0.23, 0.23, 0.97, -9.93, 3.63)" xlink:href="#linear-gradient"/><linearGradient id="linear-gradient-3" x1="128.71" y1="14.66" x2="145.69" y2="44.07" gradientTransform="translate(24.06 -71.2) rotate(27.02)" xlink:href="#linear-gradient"/><linearGradient id="linear-gradient-4" x1="5.55" y1="12.58" x2="23.86" y2="44.31" gradientTransform="translate(-1.86 10.94) rotate(-34.2)" xlink:href="#linear-gradient"/><linearGradient id="linear-gradient-5" x1="73.37" y1="192.4" x2="104.5" y2="15.87" gradientTransform="matrix(1, 0, 0, 1, 0, 0)" xlink:href="#linear-gradient"/></defs><title>monster</title><g id="Layer_2" data-name="Layer 2"><g id="Layer_1-2" data-name="Layer 1"><path class="cls-1" d="M10.36,108.27C6.6,107.39-.7,102.91.05,99.68s9.29-4,13.06-3.09Z"/><path class="cls-2" d="M154.75,96.27c3.76-.89,11.07-5.36,10.31-8.59s-9.29-4-13.06-3.09Z"/><path class="cls-3" d="M144.76,12.69c-4.36,7.27-13.19,8.14-18.42,14-2.35,2.61-2.49,5.73-5,8.25C114.48,26.34,124,7.43,131.81,2c6.52-4.5,20.39-1.74,12.95,10.67Z"/><path class="cls-4" d="M23.2,13.23C26.9,24.32,45.61,28.82,38,44.06H35.53c-5.91-8.87-13.57-9.87-21-16-1.34-1.12-4.93-3.7-4.93-7.4,0-6,8.8-16.94,13.57-7.4Z"/><path class="cls-5" d="M6.9,139.8c0,70,154,70,154,0S126.42,13,83.9,13,6.9,69.76,6.9,139.8Z"/><path class="cls-6" d="M58.6,28.4c0,.78-.68,1.47-.15,2a2.91,2.91,0,0,0,2.08.75c.82,0,1.49-1.63,2-2.16s.94,0,.94-.77a2.62,2.62,0,0,0-.85-2,2.89,2.89,0,0,0-2.08-.74,3.17,3.17,0,0,0-2.09.9C57.94,26.91,58.61,27.63,58.6,28.4Z"/><path class="cls-6" d="M106.16,26.14c0,.78-.68,1.47-.15,2a2.91,2.91,0,0,0,2.08.75c.82,0,1.49-1.63,2-2.16s.94,0,.94-.77a2.62,2.62,0,0,0-.85-2,2.89,2.89,0,0,0-2.08-.74,3.17,3.17,0,0,0-2.09.9C105.5,24.65,106.17,25.36,106.16,26.14Z"/><path class="cls-6" d="M85.1,18.6c.25.23.28.66.6.63a1.28,1.28,0,0,0,.86-.46c.23-.28-.09-1-.11-1.3s.28-.31,0-.54a1.16,1.16,0,0,0-.9-.3,1.28,1.28,0,0,0-.86.46,1.4,1.4,0,0,0-.32,1C84.41,18.38,84.84,18.37,85.1,18.6Z"/><path class="cls-6" d="M88.29,16.37c.18.16.2.46.42.44a.9.9,0,0,0,.6-.32c.16-.19-.06-.68-.08-.91s.2-.21,0-.37a.81.81,0,0,0-.63-.21.89.89,0,0,0-.6.32,1,1,0,0,0-.22.67C87.81,16.21,88.11,16.2,88.29,16.37Z"/><path class="cls-6" d="M117.64,53.11c.13.32,0,.71.27.82a1.28,1.28,0,0,0,1,0c.33-.15.34-.91.47-1.22s.39-.15.26-.47a1.16,1.16,0,0,0-.68-.66,1.28,1.28,0,0,0-1,0,1.4,1.4,0,0,0-.71.72C117.12,52.61,117.51,52.79,117.64,53.11Z"/><path class="cls-6" d="M121.67,53.13c-.15.31-.56.45-.44.74a1.28,1.28,0,0,0,.68.71c.33.15.91-.35,1.23-.45s.37.19.52-.12a1.16,1.16,0,0,0,0-.94,1.28,1.28,0,0,0-.68-.7,1.4,1.4,0,0,0-1-.06C121.7,52.41,121.82,52.82,121.67,53.13Z"/><path class="cls-6" d="M118.75,60.34c.29.74-.08,1.65.61,1.91a3,3,0,0,0,2.26-.09c.76-.34.79-2.11,1.09-2.82s.89-.35.6-1.09a2.68,2.68,0,0,0-1.56-1.53,3,3,0,0,0-2.26.1,3.24,3.24,0,0,0-1.64,1.66C117.55,59.19,118.45,59.61,118.75,60.34Z"/><path class="cls-6" d="M125.5,51.1c.09.22,0,.5.19.58a.9.9,0,0,0,.68,0c.23-.1.24-.64.33-.85s.27-.11.18-.33a.81.81,0,0,0-.47-.46.89.89,0,0,0-.68,0,1,1,0,0,0-.49.5C125.13,50.75,125.41,50.88,125.5,51.1Z"/><path class="cls-6" d="M57.38,62.29c-.31-.14-.48-.53-.77-.4a1.28,1.28,0,0,0-.67.71c-.13.34.4.89.52,1.2s-.17.38.15.52a1.16,1.16,0,0,0,.94,0,1.28,1.28,0,0,0,.66-.72,1.4,1.4,0,0,0,0-1C58.1,62.28,57.69,62.42,57.38,62.29Z"/><path class="cls-6" d="M54.5,65.1c-.1-.33.08-.71-.21-.84a1.28,1.28,0,0,0-1,0c-.34.12-.4.89-.55,1.18s-.39.13-.29.45a1.16,1.16,0,0,0,.63.7,1.28,1.28,0,0,0,1,0,1.4,1.4,0,0,0,.75-.67C55,65.64,54.61,65.43,54.5,65.1Z"/><path class="cls-6" d="M51.5,57.92c-.73-.32-1.1-1.23-1.78-.93a3,3,0,0,0-1.55,1.66c-.3.78.93,2.06,1.21,2.78s-.39.88.34,1.2a2.68,2.68,0,0,0,2.19,0,3,3,0,0,0,1.54-1.66,3.24,3.24,0,0,0,0-2.33C53.17,57.9,52.23,58.23,51.5,57.92Z"/><path class="cls-6" d="M53.2,69.23c-.22-.1-.33-.37-.54-.28a.9.9,0,0,0-.47.5c-.09.23.28.62.36.84s-.12.26.1.36a.81.81,0,0,0,.66,0,.89.89,0,0,0,.46-.5,1,1,0,0,0,0-.7C53.7,69.23,53.42,69.33,53.2,69.23Z"/><path class="cls-6" d="M95.51,30.9c.66.6.73,1.71,1.56,1.63a3.34,3.34,0,0,0,2.25-1.2c.6-.72-.24-2.53-.28-3.39s.73-.8.07-1.4a3,3,0,0,0-2.33-.78A3.32,3.32,0,0,0,94.53,27a3.64,3.64,0,0,0-.84,2.48C93.73,30.32,94.85,30.3,95.51,30.9Z"/><path class="cls-6" d="M81,35.3c-.17.88-1.08,1.51-.58,2.18a3.34,3.34,0,0,0,2.2,1.29c.93.14,2-1.52,2.75-2s1.06.21,1.23-.67A3,3,0,0,0,86,33.7a3.32,3.32,0,0,0-2.2-1.28,3.64,3.64,0,0,0-2.56.58C80.55,33.48,81.15,34.43,81,35.3Z"/><path class="cls-6" d="M73.22,41.33c1.37-.27,2.83.66,3.5-.45a5.22,5.22,0,0,0,.57-3.94c-.35-1.43-3.4-2-4.53-2.79s-.33-1.65-1.7-1.38A4.72,4.72,0,0,0,67.91,35a5.19,5.19,0,0,0-.55,3.94,5.69,5.69,0,0,0,2.35,3.36C70.84,43,71.86,41.6,73.22,41.33Z"/><path class="cls-6" d="M45.21,154.75c-.09.33-.46.54-.29.82a1.28,1.28,0,0,0,.8.56c.35.08.83-.52,1.12-.68s.4.11.49-.22a1.16,1.16,0,0,0-.13-.93,1.28,1.28,0,0,0-.8-.56,1.4,1.4,0,0,0-1,.14C45.1,154,45.3,154.42,45.21,154.75Z"/><path class="cls-6" d="M48.63,156.61c-.07.23-.32.38-.2.57a.9.9,0,0,0,.56.39c.24.06.58-.36.78-.47s.28.08.34-.15a.81.81,0,0,0-.09-.65.89.89,0,0,0-.56-.39,1,1,0,0,0-.7.1C48.56,156.11,48.7,156.38,48.63,156.61Z"/><path class="cls-6" d="M38.86,169.56c-.24.86-1.2,1.42-.76,2.12a3.34,3.34,0,0,0,2.08,1.47c.91.22,2.15-1.35,2.91-1.77s1,.3,1.28-.57a3,3,0,0,0-.35-2.43,3.32,3.32,0,0,0-2.08-1.46,3.64,3.64,0,0,0-2.6.36C38.59,167.71,39.1,168.71,38.86,169.56Z"/><path class="cls-6" d="M28.43,158.54c-.86.24-1.84-.29-2.21.46a3.34,3.34,0,0,0-.17,2.54c.29.89,2.27,1.13,3,1.56s.29,1,1.15.8a3,3,0,0,0,1.9-1.56,3.32,3.32,0,0,0,.16-2.54,3.64,3.64,0,0,0-1.66-2C29.87,157.34,29.29,158.3,28.43,158.54Z"/><path class="cls-6" d="M19.57,154.3c.86,1.1.67,2.82,2,2.93A5.22,5.22,0,0,0,25.32,156c1.12-.95.3-4,.47-5.3s1.33-1,.47-2.14a4.72,4.72,0,0,0-3.39-1.82A5.19,5.19,0,0,0,19.1,148a5.69,5.69,0,0,0-2,3.6C17,152.93,18.71,153.2,19.57,154.3Z"/><path class="cls-6" d="M77.63,25c.56-.11,1.17.27,1.44-.19a2.15,2.15,0,0,0,.23-1.63c-.14-.59-1.4-.84-1.87-1.15s-.13-.68-.7-.57a1.94,1.94,0,0,0-1.3.91A2.14,2.14,0,0,0,75.21,24a2.35,2.35,0,0,0,1,1.38C76.64,25.69,77.06,25.11,77.63,25Z"/><path class="cls-7" d="M28,67.2c.85,5.86,3.67,5.43,9.43,5.43S45,70.95,45.9,67.2c1-4.14-2.67-10.43-8.43-10.43S27.21,61.5,28,67.2Z"/><circle class="cls-8" cx="37.47" cy="66.2" r="5.66"/><circle class="cls-9" cx="35.2" cy="63.93" r="1.13"/><circle class="cls-9" cx="36.4" cy="65.56" r="0.5"/><path class="cls-7" d="M125,67.2c.85,5.86,3.67,5.43,9.43,5.43s7.52-1.68,8.43-5.43c1-4.14-2.67-10.43-8.43-10.43S124.21,61.5,125,67.2Z"/><circle class="cls-8" cx="135.47" cy="66.2" r="5.66"/><circle class="cls-9" cx="133.42" cy="63.86" r="1.13" transform="matrix(0.39, -0.92, 0.92, 0.39, 22.99, 162.27)"/><circle class="cls-9" cx="133.89" cy="65.82" r="0.5" transform="translate(21.47 163.91) rotate(-67.28)"/><g class="cls-10"><path d="M88.9,83.06c0,6.43-2.46,11.65-5.5,11.65s-5.5-5.21-5.5-11.65Z"/></g><path class="cls-9" d="M84.28,83.06c0,2.21-.85,4-1.89,4s-1.89-1.79-1.89-4Z"/></g></g></svg>